<?xml version="1.0" encoding="UTF-8"?>
<!-- Generator: visioncortex VTracer 0.6.12 -->
<svg style="background:transparent" version="1.1" xmlns="http://www.w3.org/2000/svg" width="3412" height="1012">
<path d="M0 0 C1.85171084 1.7739661 3.67553913 3.57272102 5.5 5.375 C6.14195312 5.94476563 6.78390625 6.51453125 7.4453125 7.1015625 C29.66179175 27.25139251 39.08205852 62.90306461 40.62493896 91.70751953 C40.82865551 97.49193855 40.83744213 103.2751739 40.8125 109.0625 C40.81067719 109.94207367 40.80885437 110.82164734 40.80697632 111.72787476 C40.76135335 124.81215511 40.34269186 137.55490737 37.5 150.375 C37.33371094 151.16487305 37.16742187 151.95474609 36.99609375 152.76855469 C30.89159935 181.04140744 15.9183998 209.36603206 -8.6953125 225.66015625 C-31.66509325 239.70435368 -55.03026136 245.60369634 -81.9375 245.625 C-82.70077606 245.62567474 -83.46405212 245.62634949 -84.25045776 245.62704468 C-95.29915342 245.6115042 -105.76603022 245.22746369 -116.5 242.375 C-117.18723145 242.20339355 -117.87446289 242.03178711 -118.58251953 241.85498047 C-139.0989888 236.69241489 -156.42774084 227.31387633 -171.5 212.375 C-172.37914062 211.50875 -173.25828125 210.6425 -174.1640625 209.75 C-202.50176804 180.27176761 -207.22670964 137.65340713 -206.59326172 98.74609375 C-205.72335627 67.30197206 -197.10004275 34.0504917 -175.5 10.375 C-174.81679687 9.5396875 -174.13359375 8.704375 -173.4296875 7.84375 C-155.08864106 -14.08429076 -125.29765468 -24.14557122 -97.67578125 -27.0234375 C-63.7936639 -29.73400689 -25.82292792 -23.91678434 0 0 Z M-130.5 35.375 C-148.54855868 55.93466249 -151.94054285 82.1730844 -151.8125 108.5625 C-151.81100952 109.32613861 -151.80951904 110.08977722 -151.8079834 110.8765564 C-151.76586189 122.91277704 -151.16807278 134.59580367 -148.5 146.375 C-148.2215625 147.63441406 -147.943125 148.89382813 -147.65625 150.19140625 C-143.45752667 166.6786345 -135.34994458 180.57682398 -121.25 190.3125 C-103.79442125 200.5701605 -80.37109307 202.51462949 -60.875 197.546875 C-45.93683256 192.3600113 -34.87014325 184.99622369 -26.5 171.375 C-25.9740625 170.52679688 -25.448125 169.67859375 -24.90625 168.8046875 C-14.28064772 149.77618545 -12.68312245 124.74557063 -13.5 103.375 C-13.52964844 102.11300781 -13.55929687 100.85101563 -13.58984375 99.55078125 C-14.33619164 76.94288354 -18.92439333 52.93878387 -34.625 35.6875 C-60.54187355 11.7244484 -104.22192918 12.67469469 -130.5 35.375 Z " fill="#22d3ee" transform="translate(1758.5,273.625)"/>
<path d="M0 0 C14.03132917 -0.04700546 28.06264589 -0.08199365 42.09403801 -0.10362434 C48.61105985 -0.11401181 55.12802837 -0.12807786 61.64501953 -0.15087891 C67.94741456 -0.17278834 74.24975867 -0.18460638 80.55218887 -0.18975449 C82.94323654 -0.19341802 85.33428178 -0.2005708 87.72530746 -0.21146011 C117.69950901 -0.3424017 148.35750566 1.80075188 171 24 C186.78735022 41.22005914 193.44611139 62.78090399 193.15234375 85.890625 C192.05421196 108.30377638 185.27835625 129.02908785 169 145 C143.84177252 167.39695861 113.69443787 167.31821706 82 167.125 C72.43 167.08375 62.86 167.0425 53 167 C53 199.67 53 232.34 53 266 C44.440625 266.020625 35.88125 266.04125 27.0625 266.0625 C25.70966919 266.067052 25.70966919 266.067052 18.86352539 266.09008789 C16.73323618 266.09300685 14.60294642 266.09555545 12.47265625 266.09765625 C11.35499878 266.10277222 10.23734131 266.10788818 9.08581543 266.11315918 C8.03019409 266.11328003 6.97457275 266.11340088 5.88696289 266.11352539 C4.96540909 266.115746 4.04385529 266.11796661 3.09437561 266.12025452 C1 266 1 266 0 265 C-0.0965762 263.58214294 -0.1237185 262.15949116 -0.12304783 260.73834896 C-0.12503888 259.81325808 -0.12702993 258.88816721 -0.12908131 257.93504328 C-0.12762489 257.42094905 -0.12762489 257.42094905 -0.12025452 254.81932068 C-0.12110894 253.73632488 -0.12196337 252.65332908 -0.12284368 251.53751522 C-0.12450169 247.878428 -0.11897189 244.21938579 -0.11352539 240.56030273 C-0.11324356 237.949351 -0.11340117 235.33839919 -0.1139679 232.72744751 C-0.11449332 227.09074366 -0.11134464 221.45405134 -0.10573006 215.81735039 C-0.09761749 207.66753691 -0.09500009 199.51772903 -0.09374207 191.36791194 C-0.09155116 178.14672003 -0.08489004 164.92553427 -0.07543945 151.7043457 C-0.06626633 138.85799185 -0.05918501 126.01163967 -0.05493164 113.1652832 C-0.05466892 112.3739921 -0.05440619 111.58270099 -0.05413551 110.76743137 C-0.05283051 106.79792313 -0.05156679 102.82841488 -0.05032361 98.85890663 C-0.0399498 65.90593327 -0.02233044 32.95296746 0 0 Z M53 42 C53 69.39 53 96.78 53 125 C56.980625 125.0309375 56.980625 125.0309375 77.125 125.1875 C78.36644775 125.20115601 78.36644775 125.20115601 84.64892578 125.27026367 C118.2037948 125.48577875 118.2037948 125.48577875 130 114 C137.70304286 104.60700386 139.24417155 95.28681995 139.375 83.4375 C139.38901855 82.56319336 139.40303711 81.68888672 139.41748047 80.78808594 C139.34103327 70.33246167 136.43450512 60.81503939 129.21484375 53.08984375 C114.60167709 39.40634177 93.69858997 41.72518474 75.0625 41.875 C67.781875 41.91625 60.50125 41.9575 53 42 Z " fill="#22d3ee" transform="translate(958,250)"/>
<path d="M0 0 C17.49 0 34.98 0 53 0 C53 87.78 53 175.56 53 266 C35.84 266 18.68 266 1 266 C0 265 0 265 -0.1241985 263.17661375 C-0.12381878 262.37198637 -0.12343906 261.56735899 -0.12304783 260.73834896 C-0.12503888 259.81325808 -0.12702993 258.88816721 -0.12908131 257.93504328 C-0.12762489 257.42094905 -0.12762489 257.42094905 -0.12025452 254.81932068 C-0.12110894 253.73632488 -0.12196337 252.65332908 -0.12284368 251.53751522 C-0.12450169 247.878428 -0.11897189 244.21938579 -0.11352539 240.56030273 C-0.11324356 237.949351 -0.11340117 235.33839919 -0.1139679 232.72744751 C-0.11449332 227.09074366 -0.11134464 221.45405134 -0.10573006 215.81735039 C-0.09761749 207.66753691 -0.09500009 199.51772903 -0.09374207 191.36791194 C-0.09155116 178.14672003 -0.08489004 164.92553427 -0.07543945 151.7043457 C-0.06626633 138.85799185 -0.05918501 126.01163967 -0.05493164 113.1652832 C-0.05466892 112.3739921 -0.05440619 111.58270099 -0.05413551 110.76743137 C-0.05283051 106.79792313 -0.05156679 102.82841488 -0.05032361 98.85890663 C-0.0399498 65.9059323 -0.02151085 32.95296941 0 0 Z " fill="#22d3ee" transform="translate(1200,250)"/>
<path d="M0 0 C18.48 0 36.96 0 56 0 C64.22180281 24.62187393 72.39104524 49.26007275 80.50469971 73.91775513 C81.39098559 76.6110784 82.27750089 79.30432607 83.1640625 81.99755859 C91.09157807 106.08144695 99.01117688 130.16776942 106.82403564 154.28915405 C108.36069699 159.03294592 109.9038595 163.77457477 111.45111084 168.5149231 C112.51144677 171.76459733 113.56943438 175.01503304 114.62695312 178.265625 C115.11849237 179.77489431 115.61097682 181.28385618 116.10449219 182.79248047 C116.76767732 184.82042105 117.42726703 186.84949567 118.0859375 188.87890625 C118.2718042 189.44903442 118.2718042 189.44903442 119.21240234 192.33422852 C120 195 120 195 120 197 C121.65 197 123.3 197 125 197 C125.1224559 195.98513016 125.2449118 194.97026031 125.37107849 193.92463684 C125.97316734 190.16744291 126.88047076 186.81747223 128.06274414 183.20581055 C128.2716264 182.5622398 128.48050865 181.91866905 128.69572067 181.25559616 C129.3868008 179.13083357 130.08597552 177.00882808 130.78515625 174.88671875 C131.27834262 173.37534265 131.77098084 171.86378759 132.2631073 170.35206604 C133.31097632 167.1366013 134.36228057 163.92228931 135.41638184 160.7088623 C137.07807267 155.64278449 138.73182284 150.57413884 140.38378906 145.50488281 C140.93844554 143.80300887 141.49310252 142.10113509 142.04776001 140.39926147 C142.32159138 139.55899792 142.59542274 138.71873436 142.87755203 137.85300827 C143.70731636 135.30771918 144.53781429 132.76267049 145.36849976 130.21768188 C149.71095485 116.91050338 153.99836233 103.586495 158.25 90.25 C159.48638248 86.37741348 160.72359412 82.50509209 161.9609375 78.6328125 C162.27204971 77.65906174 162.58316193 76.68531097 162.90370178 75.68205261 C166.86429583 63.28974234 170.83568307 50.90090153 174.81985474 38.51615143 C175.95470353 34.98839554 177.08847425 31.46030284 178.21936035 27.93127441 C179.47338832 24.01812952 180.73254854 20.10665485 181.9921875 16.1953125 C182.18033524 15.60701157 182.18033524 15.60701157 183.13247681 12.62985229 C183.48176239 11.5481778 183.83104797 10.4665033 184.19091797 9.35205078 C184.49351532 8.41032013 184.79611267 7.46858948 185.10787964 6.49832153 C186 4 186 4 188 0 C205.82 0 223.64 0 242 0 C240.65028863 6.07370114 239.21645688 11.77577048 237.234375 17.625 C236.96473938 18.43239624 236.69510376 19.23979248 236.41729736 20.07165527 C235.53273259 22.71598147 234.64149863 25.3580042 233.75 28 C233.12081655 29.87555807 232.49191536 31.75121086 231.86328125 33.62695312 C227.33585212 47.11645829 222.74149182 60.5830803 218.1282959 74.04345703 C213.68542483 87.00714887 209.31835594 99.99432645 205 113 C200.11574864 127.7099914 195.15162312 142.39032698 190.125 157.05224609 C185.68328625 170.013028 181.31772377 182.99741506 177 196 C172.16324873 210.56202306 167.26917535 225.10333728 162.3125 239.625 C162.16325073 240.06287842 162.16325073 240.06287842 161.40795898 242.27880859 C160.56120489 244.76189909 159.71261876 247.24435462 158.86328125 249.7265625 C158.61701492 250.44864899 158.3707486 251.17073547 158.11701965 251.91470337 C156.49361776 256.64738323 154.75838073 261.31098473 153 266 C131.88 266 110.76 266 89 266 C87.16179687 260.54597656 85.32359375 255.09195313 83.4296875 249.47265625 C71.49811253 214.07533964 59.56417782 178.67887513 47.57913208 143.29962158 C42.05100114 126.98074795 36.53305229 110.65848498 31.02734375 94.33203125 C30.42226762 92.53798217 29.81718542 90.74393513 29.21209717 88.94989014 C26.5647378 81.10032914 23.91781403 73.2506227 21.27310181 65.40016937 C20.184386 62.1690131 19.09500631 58.938081 18.00536346 55.70723724 C17.47611495 54.13779101 16.94706502 52.56827779 16.41822052 50.99869537 C13.56390724 42.52924646 10.68656884 34.06866631 7.75537109 25.62548828 C7.62544376 25.25057204 7.62544376 25.25057204 6.9679327 23.35326862 C5.73746271 19.80330152 4.50256088 16.25501437 3.25874329 12.70970154 C3.04375938 12.09087349 3.04375938 12.09087349 1.95581055 8.95922852 C1.57651901 7.87577652 1.19722748 6.79232452 0.80644226 5.67604065 C0 3 0 3 0 0 Z " fill="#22d3ee" transform="translate(1292,250)"/>
<path d="M0 0 C67.65 0 135.3 0 205 0 C205 14.85 205 29.7 205 45 C179.92 45 154.84 45 129 45 C129.00523682 51.65921631 129.01047363 58.31843262 129.01586914 65.17944336 C129.03239906 87.12012798 129.04351964 109.06081283 129.05181217 131.00150204 C129.05697592 144.3111454 129.06402011 157.62078062 129.07543945 170.93041992 C129.08538389 182.52650044 129.09185285 194.1225767 129.09408849 205.71866137 C129.09539601 211.86283525 129.09848444 218.00699693 129.10573006 224.15116692 C129.11248649 229.9269741 129.11461774 235.702764 129.11310768 241.47857475 C129.11338418 243.60511875 129.11539153 245.73166329 129.11920547 247.85820389 C129.12413683 250.74805584 129.12300036 253.63784141 129.12025452 256.5276947 C129.12171094 256.95424259 129.12171094 256.95424259 129.12908131 259.11283344 C129.11412121 264.88587879 129.11412121 264.88587879 128 266 C110.84 266 93.68 266 76 266 C76 193.07 76 120.14 76 45 C50.92 45 25.84 45 0 45 C0 30.15 0 15.3 0 0 Z " fill="#22d3ee" transform="translate(1821,250)"/>
<path d="M0 0 C148.96091137 0 148.96091137 0 170.6484375 20.5859375 C185.24748731 35.57300193 190.29008722 53.00059116 190.24438477 73.5925293 C190.00383263 90.00195809 185.02127307 104.85483369 173.421875 116.765625 C166.00122463 123.6117734 151.78866442 135 141 135 C142.23451537 138.70354612 143.07691647 138.80618879 146.4375 140.5625 C165.74266298 151.89259565 172.04812407 172.64882087 178.625 192.8125 C179.30254025 194.85376872 179.98160541 196.89453185 180.66210938 198.93481445 C181.71388438 202.09009333 182.76417689 205.24580606 183.80853271 208.40354919 C186.27471676 215.85817042 188.80256427 223.28964711 191.3671875 230.7109375 C191.71721832 231.72598862 192.06724915 232.74103973 192.42788696 233.78684998 C193.7835601 237.71794483 195.13926467 241.64900124 196.50372314 245.57705688 C197.43520515 248.26170589 198.35905494 250.94886811 199.28125 253.63671875 C199.41989975 254.03301987 199.41989975 254.03301987 200.12155151 256.0385437 C201.32794507 259.57457859 202 262.22311297 202 266 C184.18 266 166.36 266 148 266 C146.329375 261.00875 144.65875 256.0175 142.9375 250.875 C142.36346436 249.16199707 141.78942871 247.44899414 141.19799805 245.68408203 C138.11261662 236.4535388 135.09529895 227.20416209 132.14453125 217.9296875 C131.16599275 214.87075315 130.18660196 211.81209272 129.20706177 208.753479 C128.57691441 206.77593228 127.95136374 204.79691398 127.33078003 202.81634521 C116.24639536 167.45515028 116.24639536 167.45515028 105 161 C89.10014717 153.30112389 69.95205985 155.54684064 53 155 C53 191.63 53 228.26 53 266 C35.51 266 18.02 266 0 266 C0 178.22 0 90.44 0 0 Z M53 42 C53 65.43 53 88.86 53 113 C62.19875 113.061875 71.3975 113.12375 80.875 113.1875 C83.75976074 113.21481201 86.64452148 113.24212402 89.61669922 113.27026367 C91.92935773 113.27903392 94.24202092 113.28667658 96.5546875 113.29296875 C97.73426025 113.30831665 98.91383301 113.32366455 100.12915039 113.33947754 C110.51070823 113.34273331 120.56693684 111.46211736 129 105 C137.15426953 96.16917535 138.56334128 85.18303496 138.28125 73.58203125 C137.60808473 65.00852359 134.86639001 57.41866523 129 51 C117.39527817 42.0570873 104.36170685 41.83091695 90.3046875 41.90234375 C89.35150635 41.90335083 88.3983252 41.90435791 87.41625977 41.90539551 C83.90249403 41.9105731 80.38874563 41.92453373 76.875 41.9375 C72.935625 41.9478125 72.935625 41.9478125 53 42 Z " fill="#22d3ee" transform="translate(2067,250)"/>
<path d="M0 0 C0.5940136 0.00111031 0.5940136 0.00111031 3.6000824 0.00672913 C3.92690002 0.00665611 3.92690002 0.00665611 5.58079529 0.00628662 C7.75058766 0.00698569 9.92029517 0.01477774 12.09007263 0.02259827 C13.59079949 0.02446247 15.09152696 0.02588636 16.59225464 0.02688599 C20.54934865 0.03071099 24.50640616 0.04054112 28.46348572 0.05158997 C32.49851488 0.06180446 36.53354991 0.06638369 40.56858826 0.07142639 C48.49113108 0.08216341 56.41364419 0.09923962 64.33616638 0.12025452 C67.42734448 7.35627806 70.30884902 14.59716808 72.79710388 22.06166077 C73.1038353 22.96941757 73.41056671 23.87717438 73.72659302 24.81243896 C74.38295224 26.75572458 75.03753004 28.69961267 75.69044495 30.64405823 C77.46507226 35.92713866 79.25462 41.20516514 81.04319763 46.48353577 C81.40705063 47.55816071 81.77090363 48.63278564 82.14578247 49.73997498 C85.50181292 59.63852147 88.93960745 69.5073383 92.39866638 79.37025452 C98.6396804 97.18058585 104.78093435 115.02444637 110.90093613 132.87661743 C113.13528099 139.3942251 115.37023908 145.9116225 117.60569763 152.42884827 C117.7276201 152.78430033 117.7276201 152.78430033 118.34462166 154.58310318 C122.7875251 167.53432427 127.24880487 180.47913238 131.72770691 193.41795349 C132.46182107 195.53878388 133.1955904 197.65973366 133.92900085 199.7808075 C137.85632312 211.13833393 141.81131151 222.4852988 145.81663513 233.81556702 C146.87962492 236.83083274 147.94216582 239.84625632 149.00462341 242.86170959 C150.00006379 245.6784672 151.0038342 248.49215978 152.00804138 251.30580139 C152.6008774 252.98600305 153.19334793 254.66633372 153.78538513 256.34681702 C153.92340294 256.72927078 153.92340294 256.72927078 154.62185669 258.66471863 C155.2510174 260.46407471 155.80195429 262.29046137 156.33616638 264.12025452 C156.00616638 264.78025452 155.67616638 265.44025452 155.33616638 266.12025452 C137.18616638 266.12025452 119.03616638 266.12025452 100.33616638 266.12025452 C98.12929138 259.52025452 95.92241638 252.92025452 93.64866638 246.12025452 C92.96328796 244.07322327 92.27790955 242.02619202 91.57176208 239.91712952 C88.79315795 231.60458868 86.03082173 223.28678557 83.37913513 214.93275452 C82.98105652 213.68107483 82.58297791 212.42939514 82.1728363 211.13978577 C81.33616638 208.12025452 81.33616638 208.12025452 81.33616638 205.12025452 C47.67616638 205.12025452 14.01616638 205.12025452 -20.66383362 205.12025452 C-21.65383362 209.08025452 -22.64383362 213.04025452 -23.66383362 217.12025452 C-24.87893986 221.0178244 -26.12030522 224.88911979 -27.42164612 228.75697327 C-27.77016632 229.80303238 -28.11868652 230.84909149 -28.47776794 231.92684937 C-29.20673343 234.11142597 -29.93788396 236.29527459 -30.67115784 238.47840881 C-31.79819389 241.83563701 -32.91703128 245.19552004 -34.03492737 248.55580139 C-34.74668914 250.68551843 -35.45891168 252.81508154 -36.17164612 254.94447327 C-36.50705414 255.95160873 -36.84246216 256.9587442 -37.18803406 257.99639893 C-37.49860748 258.91858719 -37.80918091 259.84077545 -38.12916565 260.79090881 C-38.26565018 261.1980587 -38.26565018 261.1980587 -38.9563446 263.25848389 C-39.66383362 265.12025452 -39.66383362 265.12025452 -40.66383362 266.12025452 C-42.32121805 266.21372367 -43.98258006 266.23770429 -45.64259338 266.23377991 C-46.70361771 266.23370438 -47.76464203 266.23362885 -48.8578186 266.23355103 C-49.43489311 266.23097038 -49.43489311 266.23097038 -52.35523987 266.21791077 C-53.5302153 266.21649582 -54.70519073 266.21508087 -55.91577148 266.21362305 C-59.68598426 266.20800444 -63.45613865 266.19544878 -67.22633362 266.18275452 C-69.77516089 266.17774191 -72.32398909 266.17317859 -74.87281799 266.16908264 C-81.13650994 266.15802896 -87.40016761 266.14127273 -93.66383362 266.12025452 C-94.66383362 264.12025452 -94.66383362 264.12025452 -94.11470032 261.93405151 C-93.79672485 261.02072556 -93.47874939 260.1073996 -93.15113831 259.16639709 C-92.79119781 258.12061996 -92.43125732 257.07484283 -92.06040955 255.99737549 C-91.65625824 254.84812088 -91.25210693 253.69886627 -90.83570862 252.51478577 C-90.42003632 251.31376724 -90.00436401 250.11274872 -89.57609558 248.87533569 C-88.43585015 245.58098227 -87.28643723 242.28989255 -86.13550568 238.99925995 C-84.92405981 235.53028892 -83.72128516 232.05831519 -82.51783752 228.58656311 C-80.53494311 222.86904769 -78.54764049 217.15308367 -76.55738831 211.43812561 C-73.92730702 203.88444268 -71.31151363 196.32591199 -68.70289612 188.76478577 C-68.31355896 187.63629715 -67.9242218 186.50780853 -67.52308655 185.34512329 C-66.74748276 183.09679371 -65.9719289 180.84844691 -65.19642639 178.6000824 C-63.2476757 172.95239411 -61.29553753 167.30587723 -59.34352112 161.65931702 C-55.40824109 150.27469576 -51.47461435 138.88950415 -47.54176331 127.50404358 C-45.96190148 122.93040111 -44.38181458 118.3568365 -42.80152893 113.78334045 C-38.76556479 102.10243712 -34.73217853 90.42065197 -30.70289612 78.73744202 C-16.57163506 37.76864825 -16.57163506 37.76864825 -9.89033508 18.67915344 C-9.32807766 17.07201853 -8.76673926 15.46456177 -8.20637512 13.85676575 C-7.45290631 11.6961702 -6.69573226 9.53691418 -5.93727112 7.37806702 C-5.5188092 6.18326721 -5.10034729 4.98846741 -4.66920471 3.75746155 C-3.29344339 0.14867724 -3.29344339 0.14867724 0 0 Z M27.33616638 56.12025452 C26.33350955 59.18924773 25.33092404 62.25826424 24.32835388 65.32728577 C24.16963051 65.81314148 24.16963051 65.81314148 23.36639404 68.27186584 C21.5888499 73.71345137 19.81208718 79.15529049 18.03660583 84.59754944 C17.29663602 86.86554113 16.55664559 89.13352609 15.81663513 91.40150452 C15.44369827 92.54448502 15.07076141 93.68746552 14.68652344 94.86508179 C12.54621407 101.42194474 10.39996175 107.97681157 8.24656677 114.52938843 C6.9712298 118.41143053 5.69903555 122.29449859 4.42729187 126.17771912 C3.83093247 127.99594057 3.23310315 129.81368063 2.63371277 131.63090515 C1.79499002 134.17428241 0.96154041 136.71933508 0.12913513 139.26478577 C-0.11084702 139.98794983 -0.35082916 140.71111389 -0.5980835 141.45619202 C-2.61181194 147.643369 -4.07237491 153.75441967 -5.66383362 160.12025452 C17.76616638 160.12025452 41.19616638 160.12025452 65.33616638 160.12025452 C63.08639523 148.87139878 63.08639523 148.87139878 61.77073669 144.98573303 C61.47524429 144.10274536 61.17975189 143.21975769 60.87530518 142.31001282 C60.55817062 141.38243164 60.24103607 140.45485046 59.91429138 139.49916077 C59.57729721 138.49657227 59.24030304 137.49398376 58.89309692 136.46101379 C58.17041547 134.31274618 57.44505691 132.16537759 56.71723938 130.0188446 C54.79295315 124.3431789 52.88815017 118.66096987 50.98069763 112.97962952 C50.78697823 112.40353188 50.78697823 112.40353188 49.80664062 109.48812866 C45.88993124 97.82648663 42.07022914 86.13397172 38.27366638 74.43275452 C37.96876282 73.49376312 37.66385925 72.55477173 37.34971619 71.58732605 C35.67599548 66.43245524 34.0047308 61.27679658 32.33616638 56.12025452 C30.68616638 56.12025452 29.03616638 56.12025452 27.33616638 56.12025452 Z " fill="#22d3ee" transform="translate(2378.663833618164,249.87974548339844)"/>
<path d="M0 0 C0.43639297 -0.00213249 0.43639297 -0.00213249 2.64480591 -0.01292419 C3.12756233 -0.0126976 3.12756233 -0.0126976 5.57060242 -0.0115509 C6.07642853 -0.01323021 6.07642853 -0.01323021 8.63621521 -0.02172852 C12.0084809 -0.03128669 15.38069703 -0.03318531 18.75297546 -0.03425598 C21.10260031 -0.03746972 23.45222495 -0.04083388 25.80184937 -0.04434204 C30.74934857 -0.05034856 35.69683029 -0.05218084 40.64433289 -0.05158997 C46.93232802 -0.05148928 53.22020783 -0.06503621 59.50817585 -0.08236217 C64.37549331 -0.09358952 69.24278407 -0.09550577 74.11011314 -0.09498024 C76.42414427 -0.09614831 78.73817636 -0.10050287 81.0521946 -0.10831261 C117.7736145 -0.22045279 154.63253326 4.00103831 183.95219421 28.13371277 C184.31506531 28.42052917 184.31506531 28.42052917 186.15141296 29.87199402 C209.68841528 49.2472474 220.00154492 80.60930506 223.00688171 109.95768738 C223.95153194 120.6789307 224.40760749 131.37844301 223.95219421 142.13371277 C223.93430847 142.56369568 223.93430847 142.56369568 223.84379578 144.7396698 C222.14814924 179.48804678 211.65374528 211.41297749 186.28422546 236.04777527 C182.42370764 239.50090176 178.32817649 242.37252959 173.95219421 245.13371277 C172.91320984 245.79371277 171.87422546 246.45371277 170.80375671 247.13371277 C140.47741768 265.45443017 105.11130164 266.30481797 70.69438171 266.26652527 C68.52674855 266.2672007 66.35911545 266.2681727 64.19148254 266.26942444 C59.69553389 266.27088451 55.19960534 266.26879814 50.70365906 266.26408386 C44.93000165 266.25832522 39.15639011 266.26171444 33.3827343 266.26765633 C28.92884469 266.27125528 24.47496613 266.27012752 20.0210762 266.26752853 C17.88951232 266.2668606 15.75794745 266.26768305 13.62638474 266.27000809 C10.67099546 266.27253026 7.71568317 266.26870309 4.76029968 266.2631073 C4.31883606 266.26411942 4.31883606 266.26411942 2.08476257 266.26924133 C-3.93353013 266.24798842 -3.93353013 266.24798842 -5.04780579 265.13371277 C-5.14525599 263.72203702 -5.17336013 262.30550771 -5.17364693 260.89047241 C-5.17625467 259.96948163 -5.17886242 259.04849085 -5.18154919 258.09959126 C-5.17931847 257.07597587 -5.17708775 256.05236048 -5.17478943 254.99772644 C-5.17634942 253.91951976 -5.17790941 252.84131308 -5.17951667 251.73043346 C-5.18353176 248.08750258 -5.18033506 244.44461277 -5.17720032 240.80168152 C-5.17855413 238.20220414 -5.18033395 235.60272695 -5.18251038 233.00325012 C-5.18696872 226.65764503 -5.18599132 220.31205173 -5.18309774 213.96644616 C-5.18084395 208.81153787 -5.18053107 203.65663289 -5.18162155 198.50172424 C-5.18169817 198.13558867 -5.18169817 198.13558867 -5.18208589 196.28272074 C-5.1824056 194.79536001 -5.18272982 193.30799927 -5.18305849 191.82063854 C-5.18591346 177.85717412 -5.18262597 163.89371625 -5.17725812 149.93025291 C-5.17279006 137.9358951 -5.17356599 125.94154697 -5.17817688 113.94718933 C-5.18352233 100.03540163 -5.18563877 86.12361968 -5.18256462 72.21183109 C-5.18224605 70.72978783 -5.18193168 69.24774456 -5.18162155 67.76570129 C-5.18146728 67.03641188 -5.181313 66.30712247 -5.18115405 65.55573338 C-5.1802888 60.40402126 -5.18175193 55.25231276 -5.1841011 50.1006012 C-5.18719039 43.17323002 -5.18500682 36.2458775 -5.17920685 29.31850815 C-5.17787846 26.767862 -5.17827468 24.21721431 -5.18046951 21.66656876 C-5.18317796 18.20092428 -5.17980365 14.7353397 -5.17478943 11.2696991 C-5.17702015 10.24608371 -5.17925087 9.22246832 -5.18154919 8.16783428 C-5.17894144 7.2468435 -5.1763337 6.32585272 -5.17364693 5.37695312 C-5.17348457 4.57590558 -5.17332222 3.77485804 -5.17315495 2.94953632 C-4.93236482 -0.53857935 -3.02350682 0.00664814 0 0 Z M48.95219421 45.13371277 C48.95219421 103.21371277 48.95219421 161.29371277 48.95219421 221.13371277 C126.92100155 221.13371277 126.92100155 221.13371277 147.76860046 201.44230652 C158.29169611 190.31681541 163.92734758 177.06690299 166.95219421 162.13371277 C167.17649109 161.04832214 167.40078796 159.96293152 167.63188171 158.84465027 C172.43677176 130.21277121 170.56118133 95.61914184 153.88578796 71.09465027 C142.65109538 56.50361839 126.83719139 49.23348161 108.95219421 46.13371277 C89.10388054 43.65267356 68.9549718 45.13371277 48.95219421 45.13371277 Z " fill="#22d3ee" transform="translate(2577.047805786133,249.8662872314453)"/>
<path d="M0 0 C22.44 0 44.88 0 68 0 C71.31512805 7.95630731 74.40115388 15.76229524 77.1171875 23.91015625 C77.49064301 25.01808533 77.86409851 26.1260144 78.24887085 27.26751709 C79.04660907 29.63491984 79.84255672 32.00292661 80.63684082 34.37149048 C82.54640426 40.06398701 84.46796818 45.75242185 86.39051819 51.44054222 C86.82341804 52.72135281 87.2561875 54.00220747 87.68882751 55.28310585 C91.47284123 66.48442367 95.33388753 77.6567886 99.25 88.8125 C105.49410614 106.61166828 111.62829677 124.44763412 117.7431488 142.29150009 C124.4545062 161.87531295 131.17215258 181.45640547 138 201 C138.28987793 201.83071014 138.57975586 202.66142029 138.87841797 203.51730347 C141.96207142 212.35363217 145.06234459 221.18385281 148.18701172 230.00576782 C149.61739133 234.04745987 151.04217277 238.09111406 152.46630859 242.13500977 C153.14998721 244.07123797 153.83646646 246.00647979 154.52587891 247.94067383 C155.47188907 250.59484828 156.40879198 253.2520724 157.34375 255.91015625 C157.62931763 256.70365982 157.91488525 257.49716339 158.20910645 258.31471252 C158.86382653 260.19063801 159.44019484 262.09359684 160 264 C159.67 264.66 159.34 265.32 159 266 C140.85 266 122.7 266 104 266 C91.75913227 229.41493466 91.75913227 229.41493466 87.75 216.9375 C87.46310303 216.05433105 87.17620605 215.17116211 86.88061523 214.26123047 C85 208.35684874 85 208.35684874 85 205 C51.34 205 17.68 205 -17 205 C-17.99 208.63 -18.98 212.26 -20 216 C-20.57991582 217.91582983 -21.1735964 219.82767589 -21.79345703 221.73095703 C-22.11033478 222.70791534 -22.42721252 223.68487366 -22.75369263 224.69143677 C-23.08505219 225.70334076 -23.41641174 226.71524475 -23.7578125 227.7578125 C-24.1063327 228.8274826 -24.45485291 229.89715271 -24.81393433 230.99923706 C-25.54373984 233.23657748 -26.27488522 235.47348126 -27.00732422 237.70996094 C-28.13285816 241.14901047 -29.25220914 244.59003215 -30.37109375 248.03125 C-31.08296524 250.21105774 -31.79519181 252.39074957 -32.5078125 254.5703125 C-32.84322052 255.6024588 -33.17862854 256.6346051 -33.52420044 257.69802856 C-33.83477386 258.64346527 -34.14534729 259.58890198 -34.46533203 260.56298828 C-34.73830109 261.39806915 -35.01127014 262.23315002 -35.29251099 263.09353638 C-36 265 -36 265 -37 266 C-38.68801985 266.09353163 -40.37995207 266.11744791 -42.07055664 266.11352539 C-43.15160172 266.11344986 -44.23264679 266.11337433 -45.34645081 266.11329651 C-45.9344622 266.11071587 -45.9344622 266.11071587 -48.91015625 266.09765625 C-50.10732773 266.0962413 -51.30449921 266.09482635 -52.53794861 266.09336853 C-56.37949066 266.08774979 -60.22097543 266.07519411 -64.0625 266.0625 C-66.65950437 266.05748741 -69.25650965 266.05292409 -71.85351562 266.04882812 C-78.23569679 266.03777427 -84.6178443 266.02101792 -91 266 C-89.04765909 258.48824652 -86.78026525 251.15291208 -84.21875 243.828125 C-83.85331085 242.7735611 -83.4878717 241.71899719 -83.11135864 240.63247681 C-81.91087236 237.17049589 -80.70539465 233.71027463 -79.5 230.25 C-78.64593449 227.78935959 -77.79226342 225.32858225 -76.93896484 222.86767578 C-75.39152397 218.40578878 -73.84315339 213.94422921 -72.29310417 209.48324776 C-68.4436122 198.40431656 -64.61272336 187.3189774 -60.7845459 176.23266602 C-59.61623613 172.8496227 -58.44733193 169.46678523 -57.27832031 166.08398438 C-53.06500538 153.88965779 -48.85983427 141.69255913 -44.6640625 129.4921875 C-44.21262197 128.17957529 -43.76118053 126.86696339 -43.30973816 125.55435181 C-42.63229669 123.58458624 -41.95485917 121.61481931 -41.2774229 119.64505196 C-40.82651626 118.33396174 -40.37560665 117.02287254 -39.92469406 115.71178436 C-39.47529145 114.40507208 -39.02590228 113.09835517 -38.57652664 111.79163361 C-32.48378297 94.07542576 -26.35501545 76.37237389 -20.16635132 58.68942261 C-13.33438249 39.1634157 -6.66530188 19.58361893 0 0 Z M31 56 C22.38164996 82.21767609 13.77384085 108.43885923 5.36331177 134.72409058 C4.70467625 136.78228336 4.04506987 138.84016572 3.38449097 140.8977356 C2.46938146 143.74985735 1.55821432 146.60320468 0.6484375 149.45703125 C0.51294243 149.87864532 0.51294243 149.87864532 -0.17274475 152.01226807 C-2 157.77010541 -2 157.77010541 -2 160 C21.43 160 44.86 160 69 160 C66.7501384 149.8756228 66.7501384 149.8756228 65.11157227 144.91821289 C64.74647049 143.80630585 64.38136871 142.6943988 64.00520325 141.54879761 C63.61290024 140.36867096 63.22059723 139.18854431 62.81640625 137.97265625 C62.18564805 136.05701108 61.55489088 134.14136558 60.92418194 132.22570419 C60.26012181 130.211482 59.593957 128.19796766 58.92712402 126.18466187 C57.55686658 122.04743801 56.19232717 117.90834427 54.82910156 113.76879883 C54.37497363 112.38993699 53.92084157 111.01107651 53.46670532 109.63221741 C53.24307941 108.9532094 53.01945351 108.27420139 52.78905106 107.57461739 C52.11511677 105.52900888 51.44061606 103.48358795 50.76596069 101.43821716 C47.2246156 90.69958251 43.72065974 79.94918708 40.25 69.1875 C40.02216827 68.48158722 39.79433655 67.77567444 39.55960083 67.04837036 C38.37126009 63.36616081 37.18451538 59.68344187 36 56 C34.35 56 32.7 56 31 56 Z " fill="#22d3ee" transform="translate(2910,250)"/>
<path d="M0 0 C0.95692749 -0.00571014 1.91385498 -0.01142029 2.89978027 -0.01730347 C3.95880051 -0.01842133 5.01782074 -0.01953918 6.1089325 -0.02069092 C6.66352646 -0.02317337 6.66352646 -0.02317337 9.47010803 -0.03573608 C13.16702383 -0.05042314 16.86389651 -0.0571761 20.56083679 -0.06268311 C23.13466391 -0.06843614 25.70849102 -0.07419385 28.28231812 -0.07995605 C33.00690097 -0.08914073 37.73146664 -0.09542874 42.45605689 -0.09845281 C49.36322596 -0.10289919 56.27019373 -0.12027333 63.1773017 -0.1494534 C69.18776529 -0.17394359 75.1981362 -0.18141065 81.2086544 -0.18312836 C83.74597953 -0.18612844 86.28330437 -0.19406584 88.82059669 -0.20731354 C116.50433473 -0.34134759 145.17930511 0.92801518 166.54521179 20.98028564 C182.56704604 38.05171982 185.44777336 58.7448375 184.74736023 81.22393799 C183.86302514 95.97850081 177.09238238 108.69940275 166.43583679 118.75762939 C158.34771395 125.48853653 149.7764488 130.53381555 139.80302429 133.97247314 C137.57255554 135.14044189 137.57255554 135.14044189 136.74833679 137.27716064 C136.69032898 137.89204346 136.63232117 138.50692627 136.57255554 139.14044189 C137.01277039 139.26677002 137.01277039 139.26677002 139.24052429 139.90606689 C150.91379772 144.2305152 158.33695145 155.1648543 163.46031189 166.02166939 C164.30641382 167.96201635 165.11670841 169.91271436 165.91044617 171.87506104 C166.20797035 172.60526238 166.50549454 173.33546373 166.81203461 174.0877924 C170.35093437 182.90291932 173.38861613 191.88606406 176.41630554 200.88653564 C177.03618909 202.71842069 177.65635247 204.55021107 178.27677917 206.38191223 C179.56111843 210.17816922 180.841258 213.97580919 182.11845398 217.7744751 C183.75820967 222.64991385 185.41008045 227.52115333 187.06513214 232.3914175 C188.34171562 236.15300118 189.61134933 239.91690181 190.87890625 243.68153572 C191.48584281 245.48092701 192.09511699 247.27953154 192.70675659 249.07732964 C193.55398614 251.57054138 194.39166608 254.06675862 195.22685242 256.56402588 C195.48127106 257.30623886 195.7356897 258.04845184 195.99781799 258.81315613 C197.68677954 263.9119939 197.68677954 263.9119939 196.57255554 266.14044189 C179.08255554 266.14044189 161.59255554 266.14044189 143.57255554 266.14044189 C140.89146108 260.10797935 138.52211846 254.36274226 136.54130554 248.12091064 C136.26871414 247.27624237 135.99612274 246.4315741 135.715271 245.56130981 C135.13247369 243.75420445 134.55175883 241.94642635 133.97297668 240.13803101 C133.05887496 237.2852467 132.13708014 234.43505629 131.2129364 231.58551025 C128.75178052 223.99500834 126.29595343 216.40283549 123.86210632 208.80352783 C122.54625704 204.69644833 121.21716365 200.59387543 119.87870789 196.49411011 C119.39059034 194.99023613 118.90750835 193.48471652 118.42997742 191.97744751 C110.65147895 167.44145113 110.65147895 167.44145113 99.88896179 161.24981689 C83.81680584 153.55252804 64.77584617 155.69538675 47.57255554 155.14044189 C47.57255554 191.77044189 47.57255554 228.40044189 47.57255554 266.14044189 C30.41255554 266.14044189 13.25255554 266.14044189 -4.42744446 266.14044189 C-5.9897796 264.57810675 -5.55284519 263.07019003 -5.5532856 260.89720154 C-5.55589335 259.97621076 -5.55850109 259.05521997 -5.56118786 258.10632038 C-5.55895714 257.08270499 -5.55672642 256.0590896 -5.5544281 255.00445557 C-5.55598809 253.92624888 -5.55754808 252.8480422 -5.55915534 251.73716259 C-5.56317043 248.09423171 -5.55997374 244.4513419 -5.55683899 240.80841064 C-5.5581928 238.20893326 -5.55997262 235.60945607 -5.56214905 233.00997925 C-5.56660739 226.66437415 -5.56563 220.31878085 -5.56273641 213.97317529 C-5.56048262 208.81826699 -5.56016974 203.66336201 -5.56126022 198.50845337 C-5.56133684 198.14231779 -5.56133684 198.14231779 -5.56172457 196.28944987 C-5.56204428 194.80208913 -5.56236849 193.3147284 -5.56269716 191.82736766 C-5.56555214 177.86390324 -5.56226465 163.90044538 -5.55689679 149.93698204 C-5.55242874 137.94262423 -5.55320466 125.94827609 -5.55781555 113.95391846 C-5.563161 100.04213076 -5.56527744 86.1303488 -5.56220329 72.21856022 C-5.56188472 70.73651695 -5.56157035 69.25447369 -5.56126022 67.77243042 C-5.56110595 67.04314101 -5.56095167 66.3138516 -5.56079272 65.56246251 C-5.55992748 60.41075038 -5.5613906 55.25904189 -5.56373978 50.10733032 C-5.56682906 43.17995915 -5.56464549 36.25260663 -5.55884552 29.32523727 C-5.55751714 26.77459112 -5.55791335 24.22394344 -5.56010818 21.67329788 C-5.56281663 18.2076534 -5.55944232 14.74206882 -5.5544281 11.27642822 C-5.55665882 10.25281283 -5.55888954 9.22919744 -5.56118786 8.17456341 C-5.55858012 7.25357263 -5.55597237 6.33258184 -5.5532856 5.38368225 C-5.55312325 4.58263471 -5.55296089 3.78158716 -5.55279362 2.95626545 C-5.30271173 -0.66645184 -3.10924425 0.01106466 0 0 Z M47.57255554 42.14044189 C47.57255554 65.57044189 47.57255554 89.00044189 47.57255554 113.14044189 C52.14099304 113.18169189 52.14099304 113.18169189 75.26005554 113.39044189 C78.11750427 113.42685791 80.974953 113.46327393 83.91899109 113.50079346 C86.22407789 113.5124932 88.52917305 113.52268196 90.83427429 113.53106689 C91.41638672 113.54129883 91.41638672 113.54129883 94.36222839 113.59307861 C104.9013579 113.59748691 115.62689645 111.80261978 123.92411804 104.83575439 C131.220853 97.33152934 132.96116859 88.41457349 132.88505554 78.26544189 C132.87941589 77.47605225 132.87377625 76.6866626 132.8679657 75.87335205 C132.66298886 66.00808055 130.47021454 58.42853442 123.57255554 51.14044189 C113.47095541 41.63305354 98.7822288 41.97830764 85.75614929 42.04278564 C84.78230286 42.04379272 83.80845642 42.0447998 82.80509949 42.0458374 C79.20673933 42.05102458 75.60839611 42.06498544 72.01005554 42.07794189 C63.94568054 42.09856689 55.88130554 42.11919189 47.57255554 42.14044189 Z " fill="#22d3ee" transform="translate(3112.427444458008,249.85955810546875)"/>
<path d="M0 0 C-0.49592321 4.20542883 -3.06682656 6.58051244 -5.875 9.5 C-6.88029524 10.57153306 -7.88550107 11.64315 -8.890625 12.71484375 C-9.14875977 12.9873999 -9.14875977 12.9873999 -10.45507812 14.36669922 C-12.86456148 16.91401964 -15.24927249 19.48370445 -17.625 22.0625 C-18.08382568 22.56015869 -18.54265137 23.05781738 -19.01538086 23.57055664 C-22.73030025 27.63335704 -26.18159069 31.87488912 -29.62890625 36.1640625 C-32.27100032 39.32412889 -35.05158493 42.31554381 -37.875 45.3125 C-42.98021944 50.75494791 -47.6190108 56.44587718 -52.1640625 62.359375 C-54.08666966 64.85378625 -56.05986138 67.2920313 -58.0859375 69.703125 C-80.29164426 96.1826768 -97.60076351 126.31906166 -106 160 C-106.08894531 160.35545898 -106.08894531 160.35545898 -106.5390625 162.15429688 C-114.11608181 194.1762237 -109.27947579 229.95260143 -92 258 C-68.13435893 296.53495555 -23.32861843 318.5368391 18.74975586 331.01000977 C19.49233643 331.33670654 20.23491699 331.66340332 21 332 C22.33520391 336.00561173 21.23989022 337.1075979 19.4375 340.875 C15.14996669 350.21269153 12.64451847 360.09935368 10 370 C10.40089844 369.35675781 10.80179688 368.71351563 11.21484375 368.05078125 C21.55483083 351.61465667 32.83334855 337.10840071 46.4375 323.25 C47.00428467 322.66549072 47.57106934 322.08098145 48.1550293 321.47875977 C48.70070557 320.93405029 49.24638184 320.38934082 49.80859375 319.828125 C50.28095459 319.3527832 50.75331543 318.87744141 51.23999023 318.38769531 C55.79581611 314.79561399 60.75888236 313.40371797 66.3515625 312.203125 C66.70898026 312.12594238 66.70898026 312.12594238 68.51773071 311.73535156 C70.88466989 311.2293453 73.2543401 310.73826119 75.625 310.25 C76.45012085 310.07803101 77.2752417 309.90606201 78.12536621 309.72888184 C116.36055239 301.79493013 155.0417815 296.58864064 193.9375 293.3125 C194.66114746 293.25147095 195.38479492 293.19044189 196.13037109 293.12756348 C213.50977082 291.68127093 230.85806384 290.84104012 248.296875 290.76171875 C249.12914612 290.75685392 249.96141724 290.7519891 250.81890869 290.74697685 C257.12926764 290.71066432 263.43954506 290.69427269 269.75 290.6875 C270.68127213 290.68634941 271.61254425 290.68519882 272.57203674 290.68401337 C340.0045964 290.62624001 407.19285494 296.36803892 472.85058594 312.30517578 C476 313 476 313 478.45410156 313.23779297 C486.74065672 314.13590767 491.92182121 321.04623461 497.375 326.75 C498.49591299 327.89852118 499.61749737 329.04638749 500.73974609 330.19360352 C508.05486353 337.72469874 514.96004977 345.38985818 521 354 C521.67675781 354.93972656 522.35351562 355.87945312 523.05078125 356.84765625 C526.12603276 361.1708359 529.06163453 365.58293225 532 370 C528.30662725 357.03937328 524.09379282 344.47828538 519 332 C523.01491986 330.19440755 527.0340566 328.611477 531.203125 327.1953125 C559.76475767 317.47397654 587.46247551 304.45771938 610 284 C610.80953125 283.27167969 611.6190625 282.54335938 612.453125 281.79296875 C636.1795181 259.29766208 649.47491511 228.82587498 650.3515625 196.2590332 C650.83435973 141.99966574 621.96506242 95.29984899 586.33203125 56.546875 C584.37594748 54.41058251 582.45812303 52.25219343 580.5625 50.0625 C577.17595159 46.16597725 573.68662005 42.36647172 570.19213867 38.56713867 C565.75789684 33.74434099 561.37489429 28.87667429 557 24 C555.50028872 22.33307353 554.00028679 20.66640851 552.5 19 C551.76910156 18.18402344 551.03820312 17.36804688 550.28515625 16.52734375 C548.68321585 14.75562505 547.06449859 12.99899925 545.43359375 11.25390625 C545.02173828 10.80982422 545.02173828 10.80982422 542.9375 8.5625 C542.18339844 7.75941406 541.42929687 6.95632812 540.65234375 6.12890625 C539 4 539 4 539 1 C544.11087311 1.47985843 546.96464387 3.02084471 551.0625 6.0625 C551.64829834 6.4944165 552.23409668 6.92633301 552.83764648 7.37133789 C554.90160422 8.9014544 556.95066988 10.45035222 559 12 C559.82113281 12.61456055 560.64226563 13.22912109 561.48828125 13.86230469 C571.26758808 21.18229695 580.93888899 28.57704638 590.17578125 36.57421875 C592.84212037 38.86439384 595.56300997 41.06096732 598.3125 43.25 C605.1645156 48.83091705 611.50729898 54.94596318 617.91064453 61.02832031 C619.95650762 62.95895717 622.01932475 64.86929505 624.08984375 66.7734375 C632.59132222 74.60935993 640.64083459 82.72301582 648.41992188 91.27587891 C649.88260131 92.87189901 651.36483122 94.44558319 652.859375 96.01171875 C660.5762118 104.18576698 667.33764802 112.95809304 674 122 C674.51739746 122.69786621 675.03479492 123.39573242 675.56787109 124.11474609 C683.05943082 134.27081737 689.65654232 144.77516014 695.77880859 155.80859375 C696.87152825 157.76945973 697.98773412 159.71412945 699.11328125 161.65625 C705.62295967 173.24060759 710.30560437 185.59184905 715 198 C715.28004883 198.73250977 715.56009766 199.46501953 715.84863281 200.21972656 C721.91881237 216.31104153 725.40775489 233.90145871 727 251 C727.06703125 251.67820801 727.1340625 252.35641602 727.203125 253.05517578 C729.56783649 278.28823907 727.41123726 306.02205903 716 329 C715.71785645 329.58442871 715.43571289 330.16885742 715.14501953 330.77099609 C710.76112517 339.78710493 705.80933684 347.5634874 699 355 C698.236875 355.8559375 697.47375 356.711875 696.6875 357.59375 C664.73421369 391.54411671 616.71346639 408.51882435 574.73828125 426.5546875 C561.9805862 432.03859687 549.29164313 437.52197186 537 444 C535.67768499 444.67305834 534.35474918 445.34489819 533.03125 446.015625 C525.80142586 449.71793055 519.14150011 453.63044445 513 459 C512.58427734 459.36158203 512.58427734 459.36158203 510.48046875 461.19140625 C507.95539573 463.4287648 505.47288193 465.70523185 503 468 C502.70287109 468.26425781 502.70287109 468.26425781 501.19921875 469.6015625 C474.13100018 494.79632441 462.04313922 534.25178256 452.66333008 568.62890625 C445.67899626 593.89676299 437.81243427 615.64609582 418.9375 634.375 C418.19725586 635.11177979 417.45701172 635.84855957 416.69433594 636.60766602 C410.70017349 642.48546816 404.41825087 647.74756832 397.68066406 652.74267578 C395.94217897 654.04325658 394.23081984 655.37373945 392.5234375 656.71484375 C386.86903537 661.14880191 381.20440855 665.35034791 375 669 C388.56422341 665.99387481 400.78667911 660.76419342 413.25 654.76953125 C416.1253829 653.39294168 419.01902314 652.13533298 422 651 C417.36937483 657.73887728 411.85403028 663.31985181 406 669 C404.66440487 670.33106769 403.33026468 671.66360506 402 673 C422.65351456 661.64411571 437.61642123 647.11327684 448 626 C448.99 626.33 449.98 626.66 451 627 C451 634.26 451 641.52 451 649 C455.92331943 632.94060091 459.34034945 616.88487874 462.36914062 600.39306641 C463.20091183 595.91939913 464.08841564 591.4580132 465 587 C465.99 587.33 466.98 587.66 468 588 C474.89045188 642.6657777 474.89045188 642.6657777 477.18469238 664.87231445 C477.3496092 666.46414795 477.51783039 668.05564359 477.68981934 669.64672852 C478.61702709 678.28295322 479.14743858 686.85042393 479.1953125 695.5390625 C479.20255844 696.34882034 479.20980438 697.15857819 479.2172699 697.99287415 C479.06695071 734.51432092 454.65610274 771.88122397 435 801 C434.39833008 801.89170898 433.79666016 802.78341797 433.17675781 803.70214844 C429.4058014 809.27832986 425.62292628 814.84632537 421.79882812 820.38623047 C420.54256553 822.21163049 419.29732175 824.04464125 418.06054688 825.88330078 C417.43728516 826.79966309 416.81402344 827.71602539 416.171875 828.66015625 C415.89134277 829.07656372 415.89134277 829.07656372 414.47167969 831.18383789 C413.98602539 831.78317139 413.50037109 832.38250488 413 833 C412.34 833 411.68 833 411 833 C411.48036785 824.52196005 413.42366896 816.5398318 415.52734375 808.33984375 C415.88050593 806.94096712 416.23299672 805.54192084 416.58485413 804.14271545 C417.50673595 800.48354783 418.43687264 796.82653182 419.36907959 793.16998291 C420.49723405 788.73913294 421.6164624 784.30602196 422.73605442 779.87300205 C423.60776279 776.42160602 424.4810285 772.97063587 425.35960388 769.52098083 C427.00699777 763.03245522 428.59465058 756.54539602 430 750 C415.84705712 781.3021198 403.30798722 813.58493302 393.375 846.5 C393.15166992 847.23911621 392.92833984 847.97823242 392.69824219 848.73974609 C391.13888113 854.09802901 390.02769651 859.51706192 389 865 C386 865 386 865 383.984375 863.05859375 C383.24703125 862.19363281 382.5096875 861.32867188 381.75 860.4375 C380.945625 859.52097656 380.14125 858.60445312 379.3125 857.66015625 C377.97913182 856.12633238 376.64578558 854.59248943 375.3125 853.05859375 C366.84478804 843.93463411 354.31668555 836.68382581 341.77685547 835.76342773 C327.97117079 835.69690109 314.34654449 837.37128472 300.64575195 838.93920898 C277.16580063 841.60018849 254.86997396 840.2043178 231.46069336 837.65405273 C208.82981193 835.21119945 190.98519084 834.3676448 171.8203125 848.62109375 C166.82850223 852.67086979 163.33506733 857.42202958 159.76171875 862.7421875 C158 865 158 865 155 866 C154.92072266 865.63519531 154.92072266 865.63519531 154.51953125 863.7890625 C153.86163956 860.84490632 153.17850745 857.90798399 152.47412109 854.97460938 C152.02503583 853.1042687 151.58452844 851.23187447 151.14453125 849.359375 C142.17225585 813.402095 125.78227411 778.37029074 110 745 C110 747.70754343 110.31283104 749.59928834 110.97460938 752.19140625 C111.18929871 753.04038986 111.40398804 753.88937347 111.62518311 754.76408386 C111.74374664 755.22582253 111.74374664 755.22582253 112.34375 757.5625 C112.85002082 759.56158306 113.35620197 761.56068883 113.86230469 763.55981445 C113.99610535 764.08569656 113.99610535 764.08569656 114.67321777 766.74697876 C118.86275983 783.23096795 122.96375806 799.73087674 126.75 816.3125 C126.92007568 817.05201904 127.09015137 817.79153809 127.26538086 818.5534668 C127.73832409 820.61416455 128.20628634 822.67591086 128.671875 824.73828125 C128.80126465 825.31082642 128.80126465 825.31082642 129.45605469 828.20825195 C130 831 130 831 130 834 C126.88953939 832.66262619 125.25328536 831.39325094 123.3359375 828.61328125 C122.85922607 827.93064209 122.38251465 827.24800293 121.89135742 826.54467773 C121.39095947 825.80805908 120.89056152 825.07144043 120.375 824.3125 C119.84430908 823.54429932 119.31361816 822.77609863 118.7668457 821.98461914 C117.16818606 819.66288744 115.58293152 817.33247373 114 815 C113.57412598 814.37899414 113.14825195 813.75798828 112.70947266 813.11816406 C93.16168854 784.61064468 73.6757635 754.47007859 64 721 C63.6596875 719.85660156 63.319375 718.71320312 62.96875 717.53515625 C58.5436169 700.30581857 60.94533517 681.78816371 63.5 664.4375 C63.76562675 662.56010487 64.03091811 660.68266226 64.29589844 658.80517578 C67.79371699 634.42672044 72.11743066 610.13860287 77 586 C77.99 586 78.98 586 80 586 C80.1451001 586.69109863 80.2902002 587.38219727 80.43969727 588.09423828 C83.40993972 602.1991294 86.47586142 616.27523924 89.75 630.3125 C90.04334229 631.57400879 90.33668457 632.83551758 90.63891602 634.13525391 C91.96786741 639.79874358 93.3213909 645.42932177 95 651 C95.06058594 649.90300781 95.12117188 648.80601562 95.18359375 647.67578125 C95.26804498 646.22134346 95.35269066 644.76691695 95.4375 643.3125 C95.4571582 642.95188477 95.4571582 642.95188477 95.55664062 641.12695312 C95.78185678 637.33292718 96.12839305 633.71348508 97 630 C97.66 630 98.32 630 99 630 C99.12246094 630.28552734 99.12246094 630.28552734 99.7421875 631.73046875 C109.03199881 651.87974914 127.70452836 670.06999248 148 679 C147.17757813 678.24976563 146.35515625 677.49953125 145.5078125 676.7265625 C129.3809216 661.9643852 129.3809216 661.9643852 125 657 C125 656.34 125 655.68 125 655 C129.988603 656.45951388 134.13581542 658.65460902 138.625 661.1875 C148.00778149 666.34461695 157.83337757 669.73027965 168 673 C168.33 672.67 168.66 672.34 169 672 C168.29617188 671.55011719 167.59234375 671.10023438 166.8671875 670.63671875 C153.92688302 662.20693816 142.17038152 652.64855348 131 642 C130.27167969 641.31292969 129.54335938 640.62585938 128.79296875 639.91796875 C118.87851246 630.31639471 110.38181271 619.64322929 105.4375 606.6875 C105.2734668 606.25945068 105.2734668 606.25945068 104.44335938 604.09326172 C100.3379271 592.8631471 97.36871601 581.27999824 94.2149353 569.75646973 C84.29684956 533.5465416 72.1681157 499.77120748 46 472 C45.37738281 471.31292969 44.75476563 470.62585938 44.11328125 469.91796875 C38.47006295 463.91983106 31.89106143 459.42665925 25 455 C24.42266113 454.62149902 23.84532227 454.24299805 23.25048828 453.85302734 C8.77047602 444.45553518 -7.23118039 437.88992273 -23 431 C-23.32974823 430.85584656 -23.32974823 430.85584656 -24.99847412 430.12634277 C-28.26895476 428.69707035 -31.54017867 427.26950699 -34.81176758 425.84277344 C-106.16272297 394.72383869 -106.16272297 394.72383869 -130 378 C-130.61955566 377.57074219 -131.23911133 377.14148438 -131.87744141 376.69921875 C-157.14037659 359.05802477 -175.46559218 336.20333831 -183 306 C-183.15984375 305.36513672 -183.15984375 305.36513672 -183.96875 302.15234375 C-196.22675197 246.36551013 -173.81640478 185.15786371 -144.60253906 138.5 C-127.5665758 111.92348205 -106.47587732 88.41856812 -84.25 66.125 C-83.75422455 65.62654572 -83.2584491 65.12809143 -82.74765015 64.61453247 C-77.54938489 59.39497827 -72.31388185 54.2656408 -66.71630859 49.47119141 C-64.31804972 47.41544347 -62.00753632 45.26823729 -59.6875 43.125 C-55.25368689 39.08597847 -50.71945416 35.22493122 -46.05078125 31.4609375 C-43.82711326 29.66719764 -41.61801522 27.86127617 -39.41796875 26.0390625 C-7.38234748 -0.39904581 -7.38234748 -0.39904581 0 0 Z M436.3125 551.9375 C435.18287842 552.43822021 434.05325684 552.93894043 432.8894043 553.45483398 C415.51033805 561.26555271 399.44632388 570.61844218 385.4765625 583.69921875 C383.41305194 585.61626562 381.31295903 587.4522555 379.17578125 589.28515625 C375.04953035 592.88431374 371.28204431 596.73625444 367.5625 600.75 C366.90999268 601.4510083 366.25748535 602.1520166 365.58520508 602.87426758 C356.7610258 612.42312204 348.87090536 622.66430173 341 633 C345.30992617 633 347.31341022 630.42552405 350.375 627.6875 C351.64290473 626.57775421 352.91114108 625.46838722 354.1796875 624.359375 C354.8200293 623.79541016 355.46037109 623.23144531 356.12011719 622.65039062 C363.74928912 615.95257215 371.55394708 609.49566934 379.56518555 603.26098633 C384.03392955 599.77861711 388.42979072 596.21479547 392.8125 592.625 C400.2978818 586.51166758 407.93999077 580.62446884 415.64306641 574.7890625 C418.21850267 572.83414258 420.78743163 570.87087858 423.35546875 568.90625 C440.37878066 555.89160979 440.37878066 555.89160979 448.234375 550.3828125 C450 549 450 549 451 547 C445.72466082 547 441.07769701 549.82446239 436.3125 551.9375 Z M95 549 C98.28985277 552.46300292 101.53757956 555.18719351 105.5625 557.75 C120.05259124 567.21472872 133.18095711 578.40955998 146.34716797 589.59716797 C147.97028067 590.97477588 149.5959304 592.34931757 151.22265625 593.72265625 C172.38848876 611.5918806 172.38848876 611.5918806 180.1875 618.6875 C186.52509638 624.43847589 193.11802996 629.91054309 200 635 C199.4025592 631.83260857 198.42925444 629.96470065 196.375 627.49609375 C195.83794434 626.84350586 195.30088867 626.19091797 194.74755859 625.51855469 C194.17086426 624.83180664 193.59416992 624.14505859 193 623.4375 C192.40912598 622.72368164 191.81825195 622.00986328 191.20947266 621.27441406 C190.02126789 619.83900325 188.83070743 618.40553888 187.63769531 616.97412109 C185.52103768 614.42264619 183.45052898 611.834977 181.375 609.25 C176.4779598 603.2825685 171.29949731 597.60741917 166 592 C165.53223145 591.49823242 165.06446289 590.99646484 164.58251953 590.47949219 C147.10323772 571.81812369 122.81093545 555.84439599 98 549 C97.01 549 96.02 549 95 549 Z M102 582 C102.28833008 583.875 102.28833008 583.875 103 586 C105.56024748 587.51193392 107.99436188 588.77866544 110.6875 590 C120.7740563 594.69910539 120.7740563 594.69910539 125 598 C125 598.99 125 599.98 125 601 C124.2575 601.433125 123.515 601.86625 122.75 602.3125 C119.24047622 604.46607141 117.81374722 606.30274605 116 610 C116 615.83389724 117.04265309 619.52194955 121 624 C125.75896825 626.69375561 129.56609183 627.66732206 135 627 C139.67770651 625.46958586 142.38391686 624.0011351 145 619.75 C145.33 618.8425 145.66 617.935 146 617 C151.02753352 620.99719491 155.07452645 625.20510174 158.875 630.375 C159.38893311 631.06907959 159.90286621 631.76315918 160.43237305 632.47827148 C165.62279464 639.63294149 169.97641169 647.13955562 174 655 C174.16169678 655.31380615 174.16169678 655.31380615 174.97998047 656.90185547 C186.92218584 680.38880419 188.14631076 701.64081101 185.14804077 727.47821045 C184.55866837 732.5663784 184.00467624 737.65846136 183.4453125 742.75 C183.38643608 743.28215622 183.38643608 743.28215622 183.08848572 745.97518921 C181.8070247 757.61554664 180.64865252 769.26740956 179.52182007 780.92364502 C179.30042001 783.20926966 179.07715831 785.4947148 178.85195923 787.77996826 C178.53621287 790.98571376 178.22624657 794.19196622 177.91796875 797.3984375 C177.82446136 798.34025879 177.73095398 799.28208008 177.63461304 800.25244141 C177.10440702 805.86329662 176.91573414 811.36386887 177 817 C181.58296704 811.56482066 184.53897449 805.51853811 187.6875 799.1875 C187.99613983 798.56840759 188.30477966 797.94931519 188.62277222 797.3114624 C205.2373288 763.81791804 217.75762847 724.84041211 205.3359375 687.87109375 C195.98498301 661.59044508 181.07557653 639.31321287 161 620 C158.5499788 617.56568406 156.11591726 615.11947786 153.7109375 612.640625 C139.0838938 597.67114215 123.76868259 586.27181933 103 582 C102.67 582 102.34 582 102 582 Z M373.51416016 627.23022461 C367.43918553 633.41096679 362.1379412 640.03257558 357 647 C356.37996094 647.81339844 355.75992188 648.62679687 355.12109375 649.46484375 C335.84322745 675.63085717 327.39162846 705.72081875 331.77368164 738.0546875 C336.24171348 765.97445281 349.11739969 793.61838536 363 818 C363.33 818 363.66 818 364 818 C363.28977857 810.05405008 362.54170503 802.11174055 361.79240513 794.16940594 C360.98849436 785.644362 360.191691 777.11866471 359.39750576 768.59270954 C358.86561892 762.88573582 358.33101445 757.17904344 357.7902832 751.47290039 C357.2639121 745.91704463 356.7448816 740.3605454 356.23069954 734.80354881 C356.03514089 732.7036758 355.83704128 730.60403762 355.63619804 728.50466347 C351.95747492 689.99193543 359.23295982 661.32985804 384 631 C388.91820776 625.19156216 393.9361345 619.64281652 400 615 C400.20625 615.886875 400.4125 616.77375 400.625 617.6875 C402.52348848 622.26113133 405.26316666 624.8522957 409.9375 626.8125 C410.618125 626.874375 411.29875 626.93625 412 627 C413.11375 627.103125 414.2275 627.20625 415.375 627.3125 C420.97502235 626.82973945 423.72748217 624.43995438 427.375 620.3125 C429.47606069 616.02956859 429.8259112 612.68578193 429 608 C426.56659805 603.1331961 423.22578481 600.26537917 419 597 C421.79410728 594.7922064 424.57461323 593.09458193 427.765625 591.51953125 C428.21035156 591.2987793 428.21035156 591.2987793 430.4609375 590.18164062 C431.38132812 589.72982422 432.30171875 589.27800781 433.25 588.8125 C434.18585938 588.34908203 435.12171875 587.88566406 436.0859375 587.40820312 C438.3888566 586.26849316 440.69356274 585.13256871 443 584 C443 583.01 443 582.02 443 581 C416.06335898 581 391.01812186 609.77736612 373.51416016 627.23022461 Z " fill="#22d3ee" transform="translate(189,0)"/>
<path d="M0 0 C0.37600845 0.13380569 0.37600845 0.13380569 2.27883911 0.8109436 C5.87963219 2.09282419 9.4770373 3.38248534 13.06738281 4.69335938 C28.66836835 10.34276518 43.7926035 13.40649496 60.28930664 14.96289062 C62.44202613 15.17038166 64.5918113 15.39856337 66.7421875 15.62890625 C67.36943726 15.68949219 67.36943726 15.68949219 70.54370117 15.99609375 C74.33484809 16.85549052 76.16335193 18.01169912 78.88671875 20.75390625 C80.78711303 26.76698587 79.20470428 30.59572923 76.51171875 35.94140625 C76.14667236 36.68680664 75.78162598 37.43220703 75.40551758 38.20019531 C71.9682896 44.99422262 67.75626137 50.90413103 62.88671875 56.75390625 C62.02171463 57.82127371 61.15714405 58.88899264 60.29296875 59.95703125 C33.81129405 92.30857834 -5.10867302 117.31631277 -47.19970703 122.25610352 C-77.20268137 125.13731527 -107.69560988 116.65635539 -131.0546875 97.4140625 C-152.66211135 78.9141301 -152.66211135 78.9141301 -156.0390625 67.671875 C-156.14770566 61.9366599 -154.66698563 56.87085823 -153.11328125 51.37890625 C-152.95239014 50.8012854 -152.95239014 50.8012854 -152.13818359 47.87817383 C-145.56067685 24.86972814 -135.49123407 3.96622489 -113.9765625 -8.75390625 C-76.04600973 -28.52126117 -37.19206092 -13.26786077 0 0 Z M-139.11328125 39.75390625 C-138.78328125 40.74390625 -138.45328125 41.73390625 -138.11328125 42.75390625 C-117.18089827 52.21049727 -88.2534078 49.33641723 -65.98828125 48.12890625 C-65.26403961 48.0902243 -64.53979797 48.05154236 -63.79360962 48.01168823 C-47.08970756 47.08742739 -30.44653508 45.45561303 -13.80078125 43.81640625 C-12.50243347 43.68925232 -11.20408569 43.56209839 -9.86639404 43.43109131 C6.42620126 41.82583726 22.66901161 39.99632 38.88671875 37.75390625 C38.88671875 37.09390625 38.88671875 36.43390625 38.88671875 35.75390625 C26.28987428 35.09651599 13.69277754 34.44420628 1.09534645 33.79814911 C-4.75590109 33.49791379 -10.60705231 33.1960146 -16.45800781 32.89013672 C-22.11829148 32.59429115 -27.7787958 32.30304624 -33.4394722 32.01481628 C-35.58497986 31.9047945 -37.73040721 31.79319331 -39.87574387 31.67988586 C-115.03978848 27.71715986 -115.03978848 27.71715986 -139.11328125 39.75390625 Z M25.95661926 59.4135437 C25.22819321 59.77964752 24.49976715 60.14575134 23.74926758 60.52294922 C22.92142258 60.93038361 22.09357758 61.33781799 21.24064636 61.75759888 C20.79359596 61.98257553 20.79359596 61.98257553 18.53125 63.12109375 C7.69606097 68.42628131 -3.29096608 73.2410342 -14.42578125 77.87890625 C-15.35806549 78.2682132 -16.29034973 78.65752014 -17.25088501 79.05862427 C-36.40848487 87.03926859 -55.43555353 94.83469763 -76.11328125 97.75390625 C-72.45593781 101.41124969 -66.8101347 100.83748076 -61.86328125 100.94140625 C-24.53700666 100.43008742 3.39138834 83.97598304 30.88671875 59.75390625 C27.88671875 58.75390625 27.88671875 58.75390625 25.95661926 59.4135437 Z " fill="#22d3ee" transform="translate(827.11328125,486.24609375)"/>
<path d="M0 0 C13.75040085 14.38995438 19.80016141 34.21089838 24.890625 52.984375 C25.15101563 53.92925781 25.41140625 54.87414062 25.6796875 55.84765625 C26.78844464 60.24572624 27.41711215 63.67429364 25.890625 67.984375 C21.37401537 74.90001467 15.4997047 80.95363371 9.890625 86.984375 C9.58382812 87.32404297 9.58382812 87.32404297 8.03125 89.04296875 C-6.36844503 104.33495258 -25.91313071 114.12990249 -46.109375 118.984375 C-47.07101563 119.21769531 -48.03265625 119.45101562 -49.0234375 119.69140625 C-85.55003145 127.36088746 -121.7826688 114.36528628 -152.2265625 94.6171875 C-175.5790661 79.03721624 -201.98485795 55.35792615 -211.109375 27.984375 C-211.3125 25.828125 -211.3125 25.828125 -211.359375 23.484375 C-211.38515625 22.7109375 -211.4109375 21.9375 -211.4375 21.140625 C-211.02623994 18.43805886 -210.25489492 17.62860522 -208.109375 15.984375 C-205.2277282 15.02382607 -203.06096907 14.76656658 -200.05078125 14.58984375 C-174.49045673 12.92908169 -153.14806768 6.9746296 -129.33862305 -2.13012695 C-87.51710461 -18.10945658 -36.83048805 -35.19357747 0 0 Z M-129.99707031 33.2787323 C-135.5955077 33.64154832 -141.19184543 34.00169903 -146.79589844 34.26611328 C-147.19695297 34.28575386 -147.19695297 34.28575386 -149.22653198 34.38514709 C-151.2026124 34.47831214 -153.17917153 34.56118442 -155.15576172 34.64282227 C-157.97094264 34.96836683 -159.71386495 35.5166721 -162.109375 36.984375 C-129.5913736 41.05758585 -97.14523577 44.34071585 -64.421875 46.171875 C-64.04568527 46.19336105 -64.04568527 46.19336105 -62.14193726 46.30209351 C-47.98778202 47.0970035 -33.74031996 47.66026223 -19.609375 46.234375 C-18.74062744 46.14929688 -17.87187988 46.06421875 -16.97680664 45.9765625 C-7.55687287 44.95902746 3.54106363 43.74341252 11.890625 38.984375 C11.890625 38.324375 11.890625 37.664375 11.890625 36.984375 C9.20488118 36.16566119 6.5172678 35.35428512 3.828125 34.546875 C3.07595703 34.31677734 2.32378906 34.08667969 1.54882812 33.84960938 C0.80439453 33.62724609 0.05996094 33.40488281 -0.70703125 33.17578125 C-1.38258057 32.97154541 -2.05812988 32.76730957 -2.75415039 32.55688477 C-8.38954342 31.1870292 -14.13132156 30.76309283 -19.90625 30.44140625 C-20.64405701 30.39998001 -21.38186401 30.35855377 -22.14202881 30.31587219 C-30.54646075 29.87249777 -38.94397451 29.69937631 -47.359375 29.671875 C-47.79442352 29.67006729 -47.79442352 29.67006729 -49.99603271 29.66091919 C-76.69413198 29.61795237 -103.36638745 31.5506995 -129.99707031 33.2787323 Z M-156.109375 59.984375 C-134.88814936 81.86876394 -106.74510053 98.7571399 -75.66064453 99.27978516 C-74.69497559 99.2854248 -73.72930664 99.29106445 -72.734375 99.296875 C-71.81897949 99.30251465 -70.90358398 99.3081543 -69.96044922 99.31396484 C-64.07216068 99.250834 -58.81527139 98.44280677 -53.109375 96.984375 C-53.109375 96.654375 -53.109375 96.324375 -53.109375 95.984375 C-54.03234375 95.90960937 -54.9553125 95.83484375 -55.90625 95.7578125 C-85.21229673 92.80404099 -112.75583158 79.32784687 -139.08984375 66.83203125 C-142.8111791 65.0662807 -146.5346325 63.30848601 -150.28515625 61.60546875 C-150.63340454 61.44719604 -150.63340454 61.44719604 -152.39575195 60.64624023 C-154.109375 59.984375 -154.109375 59.984375 -156.109375 59.984375 Z " fill="#22d3ee" transform="translate(225.109375,493.015625)"/>
<path d="M0 0 C6.34618196 4.88897442 11.00893974 10.06971738 15.0625 16.96484375 C15.59617187 17.86847656 16.12984375 18.77210938 16.6796875 19.703125 C28.77838572 41.94426427 29.47067082 71.94533648 22.49267578 95.92285156 C17.48140347 111.8935412 7.65887485 123.9021776 -7.27734375 131.7109375 C-21.33469965 138.42561953 -21.33469965 138.42561953 -28.9375 137.96484375 C-26.02703214 143.47941444 -22.61447093 146.497662 -16.8125 148.71484375 C-9.8878215 150.83135678 -2.96617597 150.27319275 4.125 149.33984375 C5.424375 149.21609375 6.72375 149.09234375 8.0625 148.96484375 C10.97240931 151.87475306 11.04243468 155.29837574 11.6875 159.21484375 C11.75453125 159.59060547 11.75453125 159.59060547 12.09375 161.4921875 C12.81326645 165.69915611 13.21261643 169.67970206 13.0625 173.96484375 C-2.15177346 178.46610809 -19.39991676 177.5678655 -33.65625 170.64453125 C-45.86369967 163.91572616 -52.58029393 154.03646197 -56.9375 140.96484375 C-59.37362277 140.24976294 -61.70553563 139.70481726 -64.1875 139.21484375 C-79.63579998 135.72490252 -92.54282507 127.23489027 -101.27734375 113.875 C-114.09165856 91.41225993 -117.17903417 63.25708837 -110.9140625 38.109375 C-105.07940552 19.32177951 -96.3244231 4.8107456 -78.9375 -5.03515625 C-54.34139172 -16.75029684 -22.59256663 -15.65256278 0 0 Z M-71.00390625 23.6484375 C-83.84016206 39.02601265 -82.98629995 59.01652467 -81.9375 77.96484375 C-80.90428041 89.0236263 -77.25491817 99.74317624 -68.96875 107.4296875 C-58.24322621 115.53570836 -46.86615142 115.93041177 -33.9375 114.96484375 C-25.66739089 113.46379504 -19.34066554 109.35806301 -13.9375 102.96484375 C-2.94143169 87.0121232 -3.07255758 64.34246928 -6.125 45.90234375 C-7.97164116 35.99649779 -11.7581089 26.41229479 -20.1953125 20.33984375 C-35.41458993 10.65908013 -57.65000198 10.34353838 -71.00390625 23.6484375 Z " fill="#22d3ee" transform="translate(1308.9375,586.03515625)"/>
<path d="M0 0 C9.57 0 19.14 0 29 0 C29.01981934 2.91634277 29.03963867 5.83268555 29.06005859 8.83740234 C29.12710651 18.49658378 29.20474376 28.1556595 29.28752708 37.81471825 C29.3373726 43.66828437 29.38370344 49.52183347 29.421875 55.37548828 C29.45887643 61.02954674 29.50527616 66.68345857 29.55806351 72.3373909 C29.57652872 74.48940064 29.5916654 76.64144172 29.60334396 78.79349899 C29.62034174 81.81870132 29.6494084 84.84357356 29.68115234 87.86865234 C29.68331253 88.74907196 29.68547272 89.62949158 29.68769836 90.53659058 C29.81390477 100.0141965 30.89630816 109.21235952 37.25 116.625 C44.17609977 122.60663162 50.23533189 124.17966116 59.25 124.1875 C59.97574219 124.19974609 60.70148438 124.21199219 61.44921875 124.22460938 C69.19510656 124.2453203 75.7954306 122.96365552 82 118 C90.78950113 109.00609187 91.12614575 98.23266426 91.20532227 86.27929688 C91.21522186 85.34178589 91.22512146 84.4042749 91.23532104 83.43835449 C91.26669893 80.36517795 91.29159891 77.291986 91.31640625 74.21875 C91.3369963 72.07783628 91.35799328 69.93692643 91.37937927 67.79602051 C91.43438824 62.18028925 91.48389032 56.5645226 91.53222656 50.94873047 C91.58259685 45.2105802 91.63820161 39.47248089 91.69335938 33.734375 C91.80068171 22.48962538 91.90169938 11.24483211 92 0 C101.57 0 111.14 0 121 0 C121.09068746 13.56161248 121.16393837 27.12302064 121.20724869 40.68486881 C121.22804469 46.98346872 121.25621556 53.28184882 121.30175781 59.58032227 C121.34550138 65.66875276 121.36919704 71.756973 121.37950897 77.84554863 C121.38684942 80.15815982 121.4011823 82.47076066 121.42292023 84.78328133 C121.56191355 100.19495869 121.52644169 115.48979309 113 129 C112.59265625 129.66257812 112.1853125 130.32515625 111.765625 131.0078125 C103.60345624 143.06764612 89.76570328 148.32088745 76 151 C72.33440564 151.51446938 68.69623643 151.81969578 65 152 C64.29875 152.04125 63.5975 152.0825 62.875 152.125 C44.97049685 152.6675607 26.27187121 148.38337125 12.84765625 136 C4.78122246 127.26846913 -0.13421835 114.21981555 -0.12025452 102.33659363 C-0.12162918 101.42940582 -0.12300385 100.52221802 -0.12442017 99.58753967 C-0.12082489 98.60498703 -0.11722961 97.62243439 -0.11352539 96.61010742 C-0.1135984 96.08792633 -0.1135984 96.08792633 -0.1139679 93.44537354 C-0.11327209 89.99871737 -0.10549518 86.55211546 -0.09765625 83.10546875 C-0.09579089 80.71364878 -0.09436754 78.32182842 -0.09336853 75.93000793 C-0.08955264 69.63850853 -0.07973024 63.34703226 -0.06866455 57.05554199 C-0.05843051 50.63403639 -0.05386664 44.21252704 -0.04882812 37.79101562 C-0.03810716 25.19399863 -0.02051784 12.59700486 0 0 Z " fill="#22d3ee" transform="translate(1365,576)"/>
<path d="M0 0 C12.87 0 25.74 0 39 0 C45.72447054 18.72339102 52.30837223 37.48643975 58.75124359 56.30828094 C60.65251935 61.86097679 62.55744318 67.41242335 64.46208191 72.96396637 C64.94798266 74.38029839 65.43381243 75.79665477 65.91957092 77.21303558 C69.2509809 86.92602172 72.59885058 96.63315644 75.96467018 106.33427238 C76.64378063 108.29172412 77.32251814 110.24930479 78.00114441 112.20692444 C79.71090749 117.13848292 81.42072472 122.07001479 83.13668823 126.99942017 C84.29947496 130.33985624 85.45867048 133.68151872 86.6171875 137.0234375 C86.9629332 138.01295914 87.30867889 139.00248077 87.66490173 140.02198792 C87.97512772 140.91884811 88.2853537 141.81570831 88.60498047 142.73974609 C88.87615692 143.51933685 89.14733337 144.29892761 89.42672729 145.10214233 C90 147 90 147 90 149 C79.44 149 68.88 149 58 149 C56.57176006 144.64131776 55.14623652 140.28193687 53.72753906 135.92016602 C53.24409497 134.43657667 52.75907875 132.95349866 52.27246094 131.47094727 C51.57333176 129.34003007 50.87987457 127.20733874 50.1875 125.07421875 C49.96876221 124.41161545 49.75002441 123.74901215 49.5246582 123.06632996 C48.61452414 120.24594445 48 117.98600866 48 115 C38.595 115.165 38.595 115.165 -9 116 C-10.815 121.445 -10.815 121.445 -20 149 C-30.23 149 -40.46 149 -51 149 C-49.2247255 142.49066016 -47.49039551 136.1937257 -45.234375 129.875 C-44.96833969 129.11864761 -44.70230438 128.36229523 -44.4282074 127.58302307 C-43.84621432 125.9288366 -43.2626168 124.27521391 -42.67758179 122.62210083 C-41.01669845 117.92709318 -39.36961992 113.22724906 -37.72265625 108.52734375 C-37.35864212 107.48899887 -36.99462799 106.45065399 -36.61958313 105.38084412 C-33.45982895 96.35055009 -30.34736618 87.30440337 -27.24609375 78.25390625 C-26.99713223 77.52751324 -26.7481707 76.80112022 -26.49166489 76.0527153 C-24.23515963 69.468205 -21.98025429 62.88314845 -19.72961426 56.29663086 C-13.29832858 37.47634978 -6.72787757 18.71706539 0 0 Z M18 32 C15.0968401 38.97835689 12.60421225 46.01734533 10.328125 53.22265625 C10.00084412 54.24934921 9.67356323 55.27604218 9.33636475 56.33384705 C8.65235887 58.48202293 7.97010745 60.63075819 7.28955078 62.7800293 C6.24263169 66.08576608 5.19012134 69.38968354 4.13671875 72.69335938 C3.47103125 74.78635566 2.8056552 76.87945103 2.140625 78.97265625 C1.82506653 79.96419205 1.50950806 80.95572784 1.18438721 81.97731018 C0.89698669 82.88593307 0.60958618 83.79455597 0.31347656 84.73071289 C0.05906799 85.53328018 -0.19534058 86.33584747 -0.4574585 87.16273499 C-1 89 -1 89 -1 90 C12.2 90 25.4 90 39 90 C35.62037109 77.60802733 35.62037109 77.60802733 34.33007812 73.54443359 C34.03967651 72.62753754 33.7492749 71.71064148 33.45007324 70.76596069 C32.14722809 66.699957 30.84297948 62.63445264 29.52978516 58.57177734 C28.83803454 56.42436563 28.15158556 54.27523949 27.47021484 52.12451172 C26.48131347 49.00363169 25.4769166 45.88813936 24.46875 42.7734375 C24.16553833 41.80691254 23.86232666 40.84038757 23.54992676 39.84457397 C23.25952515 38.95919952 22.96912354 38.07382507 22.66992188 37.16162109 C22.41915894 36.3798349 22.168396 35.59804871 21.91003418 34.79257202 C21 33 21 33 18 32 Z " fill="#22d3ee" transform="translate(1553,576)"/>
<path d="M0 0 C11.55 0 23.1 0 35 0 C44.13667047 10.46183641 44.13667047 10.46183641 46.09765625 15.44921875 C49.1086784 22.48977493 53.02114064 28.73973489 57.125 35.1875 C58.48156732 37.39095384 59.83450147 39.59664906 61.18359375 41.8046875 C64.94384766 47.92411441 68.76668913 54.00175778 72.61791992 60.06420898 C76.99538447 66.9635957 81.28658731 73.91531815 85.54956055 80.88598633 C86.057854 81.71251709 86.56614746 82.53904785 87.08984375 83.390625 C87.53191162 84.11282227 87.97397949 84.83501953 88.42944336 85.57910156 C90.51317673 88.79102447 92.77465509 91.88451712 95 95 C95.33 63.65 95.66 32.3 96 0 C105.57 0 115.14 0 125 0 C125 49.17 125 98.34 125 149 C114.77 149 104.54 149 94 149 C83.79554998 135.92991676 83.79554998 135.92991676 81.2734375 130.08203125 C78.48295005 123.87342851 75.19536128 118.20932757 71.5 112.5 C70.44405545 110.80448195 69.39203024 109.1065173 68.34375 107.40625 C67.8075 106.54 67.27125 105.67375 66.71875 104.78125 C63.47102789 99.52584513 60.23621269 94.26249693 57 89 C51.9228068 80.74620634 46.84371014 72.49361365 41.75 64.25 C41.48767578 63.82460938 41.48767578 63.82460938 40.16015625 61.671875 C38.04497699 58.25205761 35.92177094 54.85873136 33.640625 51.546875 C32 49 32 49 32 47 C31.34 47 30.68 47 30 47 C30 80.66 30 114.32 30 149 C20.1 149 10.2 149 0 149 C0 99.83 0 50.66 0 0 Z " fill="#22d3ee" transform="translate(1664,576)"/>
<path d="M0 0 C38.28 0 76.56 0 116 0 C116 8.25 116 16.5 116 25 C101.81 25 87.62 25 73 25 C73 65.92 73 106.84 73 149 C63.1 149 53.2 149 43 149 C43 108.08 43 67.16 43 25 C28.81 25 14.62 25 0 25 C0 16.75 0 8.5 0 0 Z " fill="#22d3ee" transform="translate(1812,576)"/>
<path d="M0 0 C38.28 0 76.56 0 116 0 C116 8.25 116 16.5 116 25 C101.81 25 87.62 25 73 25 C73 65.92 73 106.84 73 149 C63.1 149 53.2 149 43 149 C43 108.08 43 67.16 43 25 C28.81 25 14.62 25 0 25 C0 16.75 0 8.5 0 0 Z " fill="#22d3ee" transform="translate(1985,576)"/>
<path d="M0 0 C33 0 66 0 100 0 C100 8.25 100 16.5 100 25 C77.23 25 54.46 25 31 25 C31 36.22 31 47.44 31 59 C50.8 59 70.6 59 91 59 C91 67.25 91 75.5 91 84 C71.2 84 51.4 84 31 84 C31 97.2 31 110.4 31 124 C54.43 124 77.86 124 102 124 C102 132.25 102 140.5 102 149 C68.34 149 34.68 149 0 149 C0 99.83 0 50.66 0 0 Z " fill="#22d3ee" transform="translate(2123,576)"/>
<path d="M0 0 C85.24705567 0 85.24705567 0 98.109375 11.82421875 C105.82449242 20.70297991 108.3572388 31.54991971 107.875 43 C106.90507106 53.16220998 103.75581185 61.15490848 96 68 C91.96450705 70.83745598 87.87781465 73.28846339 83.2578125 75.0390625 C81 76 81 76 80 78 C80.680625 78.20625 81.36125 78.4125 82.0625 78.625 C92.6152765 83.56459751 96.12449224 93.34191243 100.02185059 103.72140503 C102.60793344 110.90056561 105.02276931 118.13684887 107.4375 125.375 C108.17567311 127.5627563 108.91460023 129.75025835 109.65429688 131.9375 C110.98800986 135.89356263 112.3211637 139.8497876 113.64233398 143.81005859 C113.90545883 144.59754486 114.16858368 145.38503113 114.43968201 146.19638062 C115 148 115 148 115 149 C104.77 149 94.54 149 84 149 C81.37721558 142.44303894 78.92756034 135.99674152 76.7578125 129.30078125 C76.16097475 127.49647384 75.56329339 125.6924453 74.96484375 123.88867188 C74.03994289 121.09356345 73.12006638 118.29724018 72.21435547 115.49584961 C71.32730755 112.75891227 70.4193891 110.02963164 69.5078125 107.30078125 C69.37645401 106.88611855 69.37645401 106.88611855 68.71170044 104.78767395 C66.86482907 99.33517035 64.48744322 94.74408058 60 91 C50.93975041 87.37590016 40.72448031 87.81037336 31 87 C31 107.46 31 127.92 31 149 C20.77 149 10.54 149 0 149 C0 99.83 0 50.66 0 0 Z M31 24 C31 36.87 31 49.74 31 63 C33.7225 63.04125 33.7225 63.04125 47.5 63.25 C49.20220703 63.28641602 50.90441406 63.32283203 52.65820312 63.36035156 C66.61217716 63.53592529 66.61217716 63.53592529 73 59 C78.32026712 52.45197893 78.63920089 46.19339321 78 38 C76.79045895 32.88564138 74.05205933 29.29818783 70 26 C65.36773788 24.05645843 61.15229736 23.73030051 56.1953125 23.8046875 C55.87397339 23.80569458 55.87397339 23.80569458 54.24780273 23.81079102 C51.87346135 23.82116422 49.49922263 23.84908605 47.125 23.875 C41.80375 23.91625 36.4825 23.9575 31 24 Z " fill="#22d3ee" transform="translate(2251,576)"/>
<path d="M0 0 C13.2 0 26.4 0 40 0 C48.53286161 24.37960459 57.01810915 48.77503339 65.43231201 73.19580078 C66.43732638 76.11245537 67.44379294 79.02860267 68.45147705 81.94433594 C69.65121015 85.41611904 70.84789575 88.88893765 72.04224205 92.36257744 C72.48793064 93.65725037 72.93466607 94.95156343 73.38248634 96.24550056 C73.99735624 98.02278643 74.60804517 99.80151711 75.21850586 101.58032227 C75.56409042 102.58313736 75.90967499 103.58595245 76.26573181 104.61915588 C77 107 77 107 77 109 C77.66 109 78.32 109 79 109 C79.15927979 108.449384 79.31855957 107.89876801 79.48266602 107.33146667 C81.76738732 99.56617865 84.34209601 91.90367883 86.9375 84.23828125 C87.42260681 82.80228864 87.90763096 81.36626809 88.39257812 79.93022156 C89.41014558 76.91834141 90.42900092 73.90690074 91.44873047 70.89575195 C92.47041684 67.87846291 93.49031267 64.86057979 94.50830078 61.84204102 C101.48402297 41.15782286 108.65454349 20.55640502 116 0 C128.87 0 141.74 0 155 0 C155 49.17 155 98.34 155 149 C145.43 149 135.86 149 126 149 C126 116.66 126 84.32 126 51 C123.19154904 52.40422548 123.15821574 53.87151851 122.15917969 56.81884766 C121.80364014 57.85537476 121.44810059 58.89190186 121.08178711 59.95983887 C120.69901611 61.09973267 120.31624512 62.23962646 119.921875 63.4140625 C119.51815674 64.59601196 119.11443848 65.77796143 118.69848633 66.99572754 C117.8286948 69.54401893 116.96148304 72.09302293 116.09851074 74.64361572 C114.07832863 80.61318992 112.03636466 86.57531798 109.99494171 92.53765488 C109.53896339 93.86968974 109.08325064 95.20181554 108.62779999 96.53403091 C104.44412494 108.77039372 100.14343686 120.96234985 95.75 133.125 C95.45041382 133.95509583 95.15082764 134.78519165 94.84216309 135.64044189 C93.23343062 140.09559113 91.61788115 144.54814822 90 149 C81.42 149 72.84 149 64 149 C62.93523438 145.926875 61.87046875 142.85375 60.7734375 139.6875 C53.87653382 119.78734873 46.97613601 99.88841558 40.02374268 80.00756836 C39.42900024 78.30682713 38.83455398 76.6059823 38.24041748 74.9050293 C37.41385825 72.53920807 36.58604862 70.17382837 35.7578125 67.80859375 C35.52100769 67.13042099 35.28420288 66.45224823 35.04022217 65.75352478 C34.59251756 64.47699161 34.1415935 63.20158186 33.68707275 61.92745972 C33.19440741 60.54537521 32.71051031 59.16015306 32.23236084 57.77297974 C30.22478107 52.11239054 30.22478107 52.11239054 28 51 C28 83.34 28 115.68 28 149 C18.76 149 9.52 149 0 149 C0 99.83 0 50.66 0 0 Z " fill="#22d3ee" transform="translate(2390,576)"/>
<path d="M0 0 C9.9 0 19.8 0 30 0 C30 49.17 30 98.34 30 149 C20.1 149 10.2 149 0 149 C0 99.83 0 50.66 0 0 Z " fill="#22d3ee" transform="translate(2583,576)"/>
<path d="M0 0 C11.55 0 23.1 0 35 0 C44.6975973 11.58130325 44.6975973 11.58130325 46.875 17.00390625 C50.00348741 24.23196518 53.96268629 30.6814521 58.1875 37.3125 C59.53471989 39.4978647 60.87854339 41.6853273 62.21875 43.875 C65.97060077 49.96703938 69.77857623 56.02187257 73.6159668 62.06030273 C76.27022966 66.24218583 78.8946106 70.44036872 81.48828125 74.66015625 C82.07391846 75.61237061 82.65955566 76.56458496 83.26293945 77.5456543 C84.39070114 79.38256648 85.51570282 81.22117707 86.63745117 83.06176758 C87.14896729 83.89474365 87.6604834 84.72771973 88.1875 85.5859375 C88.63480469 86.3186084 89.08210938 87.0512793 89.54296875 87.80615234 C91.20813029 90.31338117 93.11978628 92.64973284 95 95 C95.33 63.65 95.66 32.3 96 0 C105.57 0 115.14 0 125 0 C125 49.17 125 98.34 125 149 C114.77 149 104.54 149 94 149 C86.267042 140.22204767 86.267042 140.22204767 84.58203125 135.85546875 C81.79674195 129.27520881 78.07520028 123.45544701 74.25 117.4375 C72.88014468 115.21598474 71.51429664 112.99199378 70.15234375 110.765625 C66.04357357 104.07013788 61.92933107 97.3780334 57.8125 90.6875 C57.15306396 89.6157251 56.49362793 88.5439502 55.81420898 87.43969727 C51.48910547 80.41267677 47.15544467 73.391008 42.8125 66.375 C42.29598877 65.54057373 41.77947754 64.70614746 41.24731445 63.84643555 C40.759646 63.05922119 40.27197754 62.27200684 39.76953125 61.4609375 C39.30885254 60.71553711 38.84817383 59.97013672 38.37353516 59.20214844 C37.43584186 57.69877241 36.48707178 56.20226298 35.52880859 54.71191406 C35.06941895 53.99487305 34.6100293 53.27783203 34.13671875 52.5390625 C33.72510498 51.90436035 33.31349121 51.2696582 32.8894043 50.61572266 C32 49 32 49 32 47 C31.01 47 30.02 47 29 47 C29 80.66 29 114.32 29 149 C19.43 149 9.86 149 0 149 C0 99.83 0 50.66 0 0 Z " fill="#22d3ee" transform="translate(2651,576)"/>
<path d="M0 0 C12.87 0 25.74 0 39 0 C43.49969602 11.24924006 43.49969602 11.24924006 45.08032227 15.86206055 C45.43982468 16.90705719 45.79932709 17.95205383 46.16972351 19.02871704 C46.54812881 20.1368576 46.92653412 21.24499817 47.31640625 22.38671875 C47.72554764 23.57800385 48.13468903 24.76928894 48.55622864 25.99667358 C49.43603142 28.55927039 50.31495111 31.12214895 51.19232178 33.68557739 C52.58020825 37.74041481 53.97163108 41.79403284 55.36376953 45.84741211 C55.83942189 47.23243529 56.31506883 48.61746032 56.79071045 50.00248718 C57.02775444 50.69273169 57.26479843 51.38297619 57.50902557 52.09413719 C58.2337495 54.20486755 58.95814048 56.3157119 59.68243408 58.42658997 C64.16005013 71.47512097 68.65782414 84.51663562 73.16329956 97.55557251 C74.34058495 100.96289528 75.51713721 104.37047052 76.69360352 107.77807617 C77.42854642 109.90543681 78.16349103 112.03279685 78.8984375 114.16015625 C79.24561325 115.1665062 79.592789 116.17285614 79.95048523 117.20970154 C81.64334365 122.10939416 83.35160544 127.00278352 85.09082031 131.88623047 C85.41966217 132.81285995 85.74850403 133.73948944 86.08731079 134.69419861 C86.70429085 136.42951561 87.32512877 138.16346772 87.95053101 139.89576721 C90 145.66655628 90 145.66655628 90 149 C79.77 149 69.54 149 59 149 C54.49404216 137.73510541 54.49404216 137.73510541 53.078125 133.28125 C52.92666016 132.80558594 52.92666016 132.80558594 52.16015625 130.3984375 C52.00998047 129.92019531 52.00998047 129.92019531 51.25 127.5 C50.93417969 126.51257813 50.61835938 125.52515625 50.29296875 124.5078125 C48 117.2616342 48 117.2616342 48 115 C29.19 115 10.38 115 -9 115 C-9.99 118.63 -10.98 122.26 -12 126 C-13.15736248 129.8915656 -14.38990127 133.75746627 -15.625 137.625 C-15.93695312 138.61628906 -16.24890625 139.60757813 -16.5703125 140.62890625 C-16.869375 141.56863281 -17.1684375 142.50835938 -17.4765625 143.4765625 C-17.74549316 144.32299316 -18.01442383 145.16942383 -18.29150391 146.04150391 C-19 148 -19 148 -20 149 C-22.29151417 149.08790975 -24.58572524 149.10694038 -26.87890625 149.09765625 C-27.22223747 149.09694878 -27.22223747 149.09694878 -28.95970154 149.09336853 C-31.16067801 149.08775479 -33.36155409 149.07520007 -35.5625 149.0625 C-37.05143083 149.05748676 -38.54036324 149.05292355 -40.02929688 149.04882812 C-43.68623075 149.03778093 -47.34310558 149.02050713 -51 149 C-34.60766499 99.13155968 -17.24290952 49.57908203 0 0 Z M18 32 C11.53447926 51.29297363 5.10093306 70.58794025 -1 90 C12.2 90 25.4 90 39 90 C36.75 79.875 36.75 79.875 35.30419922 75.48022461 C35.14410873 74.99005608 35.14410873 74.99005608 34.33395386 72.50950623 C33.99429596 71.48414261 33.65463806 70.45877899 33.3046875 69.40234375 C32.95238068 68.32747208 32.60007385 67.2526004 32.23709106 66.14515686 C31.12040004 62.74127314 29.99779882 59.33937329 28.875 55.9375 C28.11288871 53.61796748 27.35116596 51.29830726 26.58984375 48.97851562 C24.73105435 43.31752553 22.8674198 37.65814862 21 32 C20.01 32 19.02 32 18 32 Z " fill="#22d3ee" transform="translate(2848,576)"/>
<path d="M0 0 C9.9 0 19.8 0 30 0 C30 40.92 30 81.84 30 124 C52.11 124 74.22 124 97 124 C97 132.25 97 140.5 97 149 C64.99 149 32.98 149 0 149 C0 99.83 0 50.66 0 0 Z " fill="#22d3ee" transform="translate(2959,576)"/>
<path d="M0 0 C29.97241747 3.45739356 58.33359041 3.41826634 88.26231384 -0.4604187 C89.1542897 -0.57534164 90.04626556 -0.69026459 90.965271 -0.80867004 C92.62955433 -1.02564727 94.29312332 -1.24821672 95.95571899 -1.47776794 C109.43564429 -3.25670305 118.51617879 -1.20705532 129.71446228 6.76004028 C149.52796506 22.68561045 166.64175271 46.99655234 169.71446228 72.76004028 C170.44276085 86.80779916 169.56716446 100.2404646 160.40196228 111.63504028 C154.74687208 116.10650695 148.41277369 116.0530222 141.49853516 116.02746582 C141.04509262 116.02973138 141.04509262 116.02973138 138.75039858 116.04119647 C135.72282385 116.05381934 132.69542949 116.05222147 129.66783142 116.05056763 C127.4926124 116.05655409 125.31739551 116.06335991 123.1421814 116.07092285 C117.24140912 116.08857556 111.34069486 116.09327786 105.43989873 116.09455442 C101.75240111 116.09597671 98.0649182 116.10024773 94.37742424 116.10554886 C81.51067545 116.12404498 68.64396807 116.13221977 55.77720642 116.13064575 C43.78642588 116.12944367 31.79589201 116.15056018 19.805152 116.18213308 C9.50602404 116.20828479 -0.79304515 116.21901355 -11.09220606 116.21773493 C-17.24158812 116.21722508 -23.39081027 116.22292151 -29.54015923 116.24409103 C-35.32274323 116.26345524 -41.10501444 116.26361009 -46.88760948 116.24905777 C-49.00799771 116.24696651 -51.12840543 116.25168939 -53.24876022 116.26377869 C-56.14708298 116.2792316 -59.04432716 116.26992249 -61.94262695 116.2545166 C-62.77833991 116.26480373 -63.61405286 116.27509085 -64.47509044 116.28568971 C-71.0446131 116.20870941 -76.53143822 114.49249657 -81.27381897 109.78738403 C-89.69550113 96.49652871 -90.4213208 80.38717414 -87.10267639 65.212677 C-85.30373796 58.02910767 -82.69956766 51.32931071 -79.28553772 44.76004028 C-78.83307678 43.84738403 -78.38061584 42.93472778 -77.91444397 41.99441528 C-74.43277439 35.23865534 -70.24109506 29.5052194 -65.28553772 23.76004028 C-64.56108459 22.91312622 -63.83663147 22.06621216 -63.09022522 21.19363403 C-43.76628927 -0.8571988 -27.80162783 -3.20766182 0 0 Z M83.77696228 25.57254028 C82.20758746 26.27305258 80.63792721 26.9729258 79.06797791 27.67214966 C75.28015628 29.36079629 71.49625205 31.05793065 67.71446228 32.76004028 C71.85256304 39.71852256 76.5444867 45.69537103 83.71446228 49.76004028 C87.76828701 49.69289619 90.88537146 46.7073535 94.02696228 44.38504028 C94.62927673 43.94820923 95.23159119 43.51137817 95.85215759 43.06130981 C99.21810018 40.61437522 102.55903233 38.13414673 105.89805603 35.65066528 C106.57763367 35.14712524 107.2572113 34.64358521 107.9573822 34.12478638 C109.28015518 33.14296413 110.59943072 32.15640967 111.91490173 31.16482544 C116.49258304 27.76004028 116.49258304 27.76004028 118.71446228 27.76004028 C119.37566892 36.31164616 118.56807717 42.5548148 113.71446228 49.76004028 C113.16403259 50.28468872 112.61360291 50.80933716 112.04649353 51.34988403 C110.71446228 52.76004028 110.71446228 52.76004028 110.71446228 55.76004028 C118.99707098 58.52090985 118.99707098 58.52090985 122.71446228 56.76004028 C129.33070856 49.00170388 131.26712144 39.87205087 130.99961853 29.91629028 C130.4560502 23.89980794 129.04564843 19.52296248 125.40196228 14.69754028 C115.51861533 7.57233667 93.63057783 21.13487793 83.77696228 25.57254028 Z M-44.09803772 15.88504028 C-49.47724702 22.95485822 -48.99687456 31.25002271 -48.28553772 39.76004028 C-47.3551998 43.65882756 -46.01854329 47.15207646 -44.28553772 50.76004028 C-43.93877991 51.48449341 -43.59202209 52.20894653 -43.23475647 52.95535278 C-40.80679692 57.58628722 -40.80679692 57.58628722 -37.28553772 58.76004028 C-35.02381897 58.20144653 -35.02381897 58.20144653 -32.59803772 57.32254028 C-31.78979553 57.03507935 -30.98155334 56.74761841 -30.14881897 56.45144653 C-29.84137756 56.3373645 -29.84137756 56.3373645 -28.28553772 55.76004028 C-29.38020035 53.52861262 -30.51788417 51.34080647 -31.72303772 49.16629028 C-35.53030295 42.08477696 -37.46363474 35.75233823 -38.28553772 27.76004028 C-32.23668769 30.35435519 -27.00334952 33.55327251 -21.84803772 37.63504028 C-17.74266023 40.87319538 -13.63029363 44.0295952 -9.28553772 46.94754028 C-8.43991272 47.51859497 -7.59428772 48.08964966 -6.72303772 48.67800903 C-3.65198502 50.04128082 -2.41164672 49.95328694 0.71446228 48.76004028 C3.06602478 46.83425903 3.06602478 46.83425903 5.33946228 44.44754028 C6.09485291 43.66765747 6.85024353 42.88777466 7.62852478 42.08425903 C11.43387952 37.84421021 11.43387952 37.84421021 12.71446228 35.76004028 C11.71446228 32.76004028 11.71446228 32.76004028 9.63926697 31.53665161 C8.73080017 31.14244019 7.82233337 30.74822876 6.88633728 30.34207153 C5.8684613 29.89581421 4.85058533 29.44955688 3.80186462 28.98977661 C2.70052185 28.52208862 1.59917908 28.05440063 0.46446228 27.57254028 C-0.65621643 27.09002808 -1.77689514 26.60751587 -2.93153381 26.11038208 C-10.21767869 22.99958842 -17.53527231 19.96596493 -24.91053772 17.07254028 C-25.75519592 16.73391968 -26.59985413 16.39529907 -27.47010803 16.04641724 C-33.28038898 13.82735943 -38.71560691 11.81831478 -44.09803772 15.88504028 Z " fill="#22d3ee" transform="translate(419.28553771972656,853.2399597167969)"/>
<path d="M0 0 C48.18 0 96.36 0 146 0 C143.62939006 4.74121989 141.0176046 6.01576208 136.5 8.3125 C135.74533447 8.70203857 134.99066895 9.09157715 134.21313477 9.49291992 C102.65569408 25.42960661 68.54675497 30.98119957 34.4375 19.9375 C24.69218442 16.63751821 15.81285466 11.99948407 6.85546875 6.98974609 C4.63445678 5.80501155 2.36823123 4.85049574 0 4 C0 2.68 0 1.36 0 0 Z " fill="#22d3ee" transform="translate(389,983)"/>
</svg>
